<svg width="71" height="36" viewBox="0 0 71 36" fill="none" xmlns="http://www.w3.org/2000/svg">
<path d="M15.2531 1.14872C14.6742 1.8679 14.3153 2.60118 14.0027 3.65879C13.9216 3.96903 13.748 4.37797 13.6322 4.58949C13.5048 4.80101 13.2617 5.44968 13.088 6.02785C12.9027 6.60601 12.6249 7.33929 12.4744 7.64952C12.1965 8.18538 11.9997 8.73534 10.7839 12.3171C10.5292 13.0927 10.2166 13.9106 10.1008 14.1221C9.98505 14.3336 9.75349 14.94 9.5914 15.4477C9.44088 15.9694 9.15143 16.745 8.96618 17.168C8.65357 17.9013 8.17886 19.1705 7.3105 21.6805C7.10209 22.2587 6.82422 23.0061 6.68528 23.3304C6.54634 23.6547 6.28004 24.4162 6.07164 25.0226C5.87481 25.6289 5.57378 26.4327 5.38853 26.8276C5.21485 27.2083 4.9254 27.9416 4.74015 28.4492C4.56648 28.9569 4.31176 29.5492 4.17282 29.7889C4.03388 30.0145 3.82547 30.4235 3.72127 30.6773C3.43182 31.3683 2.76028 32.2143 2.03086 32.8207C1.68351 33.1168 1.13934 33.6386 0.826731 33.977C0.328871 34.527 0.27098 34.6257 0.386761 34.8936C0.618325 35.4154 1.31301 35.5 5.73587 35.5C10.2166 35.5 10.4829 35.4577 10.6566 34.7808C10.7261 34.5411 10.6103 34.3296 10.1587 33.7514C9.31352 32.722 9.10511 32.0733 9.23247 30.9593C9.30194 30.4658 9.54508 29.4646 9.78823 28.7313C10.0198 27.998 10.3092 27.0109 10.425 26.5455C10.7376 25.2059 11.0039 24.6982 11.606 24.2611C12.1617 23.8663 12.1733 23.8663 14.5584 23.824C18.0666 23.7534 18.414 23.8945 18.8887 25.4597C18.9929 25.8264 19.2707 26.6019 19.4907 27.1801C19.7107 27.7442 20.0349 28.7313 20.2086 29.3658C20.3938 29.9863 20.637 30.8465 20.7643 31.2695C20.9611 31.9182 20.9843 32.2002 20.9033 32.9617C20.8569 33.4694 20.7527 34.0616 20.6833 34.2873C20.5791 34.6116 20.5791 34.7385 20.7064 34.8936C21.1348 35.4154 21.679 35.4859 25.8934 35.5C29.9921 35.5 30.0153 35.5 30.3973 35.1898C30.6058 35.0064 30.8026 34.7949 30.8257 34.6962C30.8952 34.4283 30.2931 33.8642 29.2048 33.145C27.9544 32.3413 27.306 31.4952 26.7965 30.0145C26.5997 29.4364 26.3103 28.7313 26.1597 28.4492C26.0092 28.1813 25.8008 27.6032 25.6966 27.1801C25.604 26.7571 25.3724 26.0802 25.1988 25.6995C25.0135 25.3046 24.7356 24.4585 24.5504 23.7957C24.3767 23.133 24.0872 22.2728 23.9136 21.892C23.7399 21.4972 23.4736 20.7357 23.3347 20.1999C23.1957 19.6499 22.9063 18.832 22.6979 18.3667C22.4895 17.9013 22.2347 17.1116 22.119 16.604C22.0148 16.0963 21.7716 15.3348 21.5979 14.9118C21.4243 14.4888 21.158 13.6568 21.019 13.0786C20.8801 12.5004 20.6254 11.739 20.4401 11.3864C20.2549 11.0339 20.0002 10.2724 19.8612 9.69424C19.7223 9.11608 19.456 8.31229 19.2823 7.93155C19.0971 7.53671 18.8423 6.74702 18.7034 6.16886C18.5645 5.5907 18.275 4.73051 18.0666 4.26516C17.8582 3.79981 17.5687 2.95372 17.4298 2.37556C17.1519 1.24743 16.8625 0.810288 16.2257 0.570562C15.8436 0.429547 15.8089 0.443649 15.2531 1.14872ZM15.6699 15.5041C16.3415 17.1398 16.4109 17.3937 16.4341 18.2257C16.4457 19.0576 16.4109 19.1846 16.1562 19.4384C15.9015 19.6922 15.751 19.7204 14.8363 19.6499C14.2806 19.6076 13.6785 19.4807 13.5048 19.382C13.2385 19.2269 13.2038 19.114 13.169 18.409C13.1459 17.7603 13.2038 17.4078 13.4701 16.6463C13.6669 16.1245 13.8522 15.5323 13.8985 15.3348C13.9448 15.1374 14.0837 14.6721 14.2227 14.3054C14.5932 13.2196 14.8016 13.3888 15.6699 15.5041Z" fill="#747474"/>
<path d="M60.3269 1.3884C59.8869 1.45891 57.6871 1.50121 55.4409 1.48711C51.4117 1.44481 51.3538 1.44481 51.1107 1.74094L50.8676 2.05117L51.0991 2.68574C51.3538 3.39081 51.5622 3.56003 52.7895 4.05359C53.5305 4.34972 53.5884 4.40612 53.82 5.02659C54.04 5.61885 54.0747 6.0137 54.1442 9.34165C54.2484 14.4605 54.1442 29.112 54.0052 30.5644C53.9358 31.2272 53.8084 31.9041 53.7158 32.0733C53.6232 32.2566 53.079 32.8066 52.5117 33.3283C51.2381 34.4564 51.1454 34.6398 51.5391 35.091L51.8401 35.4294L60.2459 35.4435C67.0307 35.4435 68.7327 35.4153 69.0105 35.2602C69.4621 35.0205 69.9484 34.1039 70.041 33.3142C70.2957 31.2977 70.4115 28.7735 70.2841 28.1813C70.0873 27.2365 69.902 27.166 69.2305 27.8287C68.559 28.4774 68.4085 28.703 68.0264 29.6478C67.6211 30.6208 66.9033 31.0862 65.4676 31.2977C64.3561 31.4669 62.5846 31.3118 61.7973 30.9734C61.0332 30.649 60.8711 29.6478 60.7669 24.5008C60.6858 20.4536 60.7321 20.0165 61.2647 19.4101L61.5542 19.0858L62.1563 19.3396C62.8973 19.6499 63.0825 19.8473 63.5225 20.778C63.8351 21.4548 64.9119 22.8086 65.1318 22.8086C65.1782 22.8086 65.375 22.5971 65.5718 22.3291C66.0002 21.7228 66.1739 20.6229 66.1623 18.4935C66.1623 16.2655 66.0581 15.6873 65.5718 15.1092L65.1782 14.6156L64.5414 14.9117C64.0667 15.1515 63.6383 15.222 62.7583 15.2361C61.4153 15.2643 61.0679 15.0951 60.7669 14.2349C60.5122 13.5298 60.4543 11.2877 60.5932 8.49556L60.709 6.23932L61.1258 5.77397C61.5426 5.32272 61.5773 5.30862 62.272 5.39323C64.1361 5.61885 65.2476 5.88678 65.7918 6.22522C66.4518 6.63416 66.5791 6.78928 67.0422 7.84689C67.3317 8.50966 67.4591 8.65068 67.8064 8.76349C68.9874 9.11603 69.2305 8.52376 69.2768 5.18171C69.3 3.64464 69.2768 2.51652 69.1958 2.19219C68.9411 1.19098 69.1263 1.23328 64.9234 1.24739C62.8394 1.26149 60.7785 1.33199 60.3269 1.3884Z" fill="#747474"/>
<path d="M36.7422 5.1818C36.1864 5.23821 35.4339 5.40743 35.0634 5.53434C34.2529 5.83047 32.3425 7.0432 31.7752 7.63547C31.5552 7.87519 31.2426 8.19953 31.0805 8.36874C30.7447 8.72128 29.7606 10.075 29.1817 11.0198C28.6722 11.8377 28.4059 12.5428 27.7807 14.7003C27.3407 16.2092 27.3291 16.2938 27.3407 18.1552C27.3407 19.7628 27.387 20.2986 27.6533 21.5678C28.6143 26.1366 29.5753 27.8993 32.3425 30.1838C33.4193 31.0863 34.0908 31.3683 36.3948 31.9042C38.3631 32.3695 39.4167 32.3695 41.524 31.9042C45.3911 31.0299 47.6372 29.3518 49.455 25.9815C50.0455 24.8816 50.196 24.4445 50.636 22.5972C51.4465 19.1846 51.4349 17.1117 50.5897 13.4735C50.1729 11.6826 49.5592 10.2865 48.6677 9.11612C47.5446 7.64957 44.8006 5.80227 43.1218 5.39333C42.0913 5.1395 38.1895 5.01259 36.7422 5.1818ZM41.5355 8.41105C41.8366 8.49566 42.2997 8.66488 42.5544 8.79179C43.1102 9.07382 44.1985 10.4558 44.5227 11.316C45.2984 13.403 45.9005 19.5371 45.5763 22.0613C45.5069 22.6395 45.2058 23.7958 44.8932 24.6983C44.4301 26.0661 44.2448 26.4469 43.6775 27.1661C42.9018 28.1391 42.346 28.4352 41.0493 28.548C40.1114 28.6326 38.4558 28.4211 37.5063 28.0968C36.3138 27.6737 34.6697 25.7418 34.0445 24.0214C33.3035 21.9626 33.1761 21.5114 33.0024 20.3127C32.8519 19.3115 32.8172 18.3949 32.8519 16.2938L32.8867 13.5581L33.3151 12.5005C34.4497 9.69429 35.7928 8.56617 38.2705 8.29824C39.4978 8.17132 40.8293 8.21363 41.5355 8.41105Z" fill="#747474"/>
</svg>
