<svg width="36" height="36" viewBox="0 0 36 36" fill="none" xmlns="http://www.w3.org/2000/svg">
<path d="M17.6466 0.645393C17.5882 0.7433 17.0335 1.72989 16.4205 2.85205C15.8002 3.96667 14.6691 5.98505 13.9028 7.33314C13.1439 8.68123 12.1149 10.4887 11.6187 11.3624C9.28339 15.4895 8.38577 17.056 7.53194 18.5547C5.90455 21.4015 4.1458 24.5044 3.40874 25.8223C3.01466 26.5228 2.21191 27.9386 1.6135 28.9629C0.321809 31.1846 0.28532 31.2599 0.358297 31.3879C0.409381 31.4783 4.52529 34.9126 5.07261 35.3343C5.19667 35.4247 5.34263 35.5 5.38641 35.5C5.4302 35.5 6.02131 35.1008 6.7 34.6188C7.37869 34.1368 8.82363 33.1277 9.90369 32.3745C10.991 31.6214 12.1222 30.8306 12.4214 30.6122C12.7206 30.3938 13.4066 29.9118 13.9393 29.5428C14.4648 29.1738 14.9026 28.8348 14.9026 28.7897C14.9026 28.7445 14.0123 28.7219 12.2244 28.7219C10.5459 28.7294 9.53151 28.7068 9.51691 28.6616C9.49502 28.5788 9.96937 27.6223 10.524 26.6508C10.7356 26.2742 11.4508 24.9864 12.1149 23.7889C17.1722 14.6159 17.6757 13.7347 17.8363 13.7347C17.9968 13.7347 17.9749 13.697 23.3898 23.4877C24.1853 24.9337 24.9661 26.3269 25.1194 26.5755C25.5719 27.3361 26.1411 28.4658 26.1411 28.6164C26.1411 28.752 26.0608 28.7595 23.4336 28.7369C21.2443 28.7219 20.7335 28.7369 20.7554 28.8123C20.7919 28.9102 21.8646 29.6783 25.8492 32.4574C27.0752 33.3084 28.5493 34.3402 29.1258 34.7544C29.7024 35.1611 30.2278 35.5 30.2935 35.5C30.3591 35.5 31.0013 34.9954 31.7311 34.3854C32.4609 33.7753 33.5701 32.8641 34.1977 32.3519C34.8253 31.8398 35.3362 31.3879 35.3362 31.3428C35.3362 31.2298 34.9494 30.5143 34.0956 29.0608C33.249 27.6223 32.6068 26.4851 31.6508 24.768C31.2568 24.06 30.7021 23.081 30.4102 22.5839C30.1183 22.0869 29.5856 21.153 29.228 20.5128C28.8631 19.8727 28.345 18.9539 28.075 18.4794C27.5933 17.6359 27.2795 17.0861 25.9805 14.7891C24.032 11.3473 22.4922 8.63605 21.8865 7.58167C21.2808 6.53483 20.9597 5.96998 20.1643 4.54658C20.0621 4.3583 19.7775 3.84617 19.544 3.41689C18.4347 1.40605 17.9239 0.524894 17.8436 0.5023C17.7998 0.487238 17.7122 0.547487 17.6466 0.645393Z" fill="#747474"/>
</svg>
