<svg width="31" height="36" viewBox="0 0 31 36" fill="none" xmlns="http://www.w3.org/2000/svg">
<g clip-path="url(#clip0_118_70)">
<path d="M14.2421 1.18878C13.7127 2.06493 13.2892 2.94107 13.2892 3.13273C13.2892 3.32439 14.9833 6.36352 17.1009 9.89549L20.8774 16.3297L22.5009 16.8225L24.0892 17.288L22.4304 17.8356C20.8068 18.4105 20.7362 18.4927 18.6539 21.9699L16.5362 25.5566L17.6657 27.3911L18.7598 29.2529L21.7245 24.6257C24.1245 20.8473 24.9715 19.8069 26.4186 18.7391C27.4068 18.0272 28.4657 17.4523 28.8186 17.4523C29.1715 17.4523 28.748 17.1237 27.8304 16.6583C26.948 16.2476 25.748 15.4262 25.148 14.8512C24.548 14.2762 22.1833 10.7169 19.8892 6.93849C17.5951 3.16011 15.6186 -0.0433037 15.4421 -0.180202C15.3009 -0.3171 14.7715 0.285252 14.2421 1.18878Z" fill="#747474"/>
<path d="M9.37153 9.29313C6.58329 13.8929 5.13623 15.5357 2.9127 16.6582C1.92447 17.1237 1.50094 17.4523 1.88917 17.4523C2.20682 17.4523 3.37153 18.1094 4.39506 18.9308C5.98329 20.1355 6.83035 21.2033 9.08917 24.8995C10.6421 27.3363 12.5833 30.5397 13.3951 31.9634C14.2068 33.3872 14.9833 34.674 15.1598 34.7835C15.3009 34.9204 15.9009 34.2086 16.5009 33.2229L17.5951 31.4158L13.8892 25.2007C11.8421 21.7509 9.97153 18.6843 9.68917 18.3832C9.44212 18.0546 8.66564 17.726 8.03035 17.6165L6.86564 17.3975L8.27741 16.932C9.58329 16.4666 9.83035 16.1928 11.9127 12.743L14.1362 9.0741L13.0068 7.23966C12.4068 6.22662 11.8774 5.40523 11.8421 5.40523C11.7715 5.40523 10.6774 7.15752 9.37153 9.29313Z" fill="#747474"/>
<path d="M13.9951 14.9607L12.6539 17.2332L13.3951 18.6569C13.8186 19.4235 14.4186 20.464 14.7716 20.9568L15.4069 21.8877L16.7128 19.5604L18.0539 17.2605L16.6775 14.9607L15.301 12.6881L13.9951 14.9607Z" fill="#747474"/>
</g>
<defs>
<clipPath id="clip0_118_70">
<rect width="30" height="35" fill="white" transform="translate(0.336182 0.5)"/>
</clipPath>
</defs>
</svg>
