<svg width="25" height="25" viewBox="0 0 25 25" fill="none" xmlns="http://www.w3.org/2000/svg">
<g clip-path="url(#clip0_4_43)">
<path d="M12.5 25C19.4036 25 25 19.4036 25 12.5C25 5.59644 19.4036 0 12.5 0C5.59644 0 0 5.59644 0 12.5C0 19.4036 5.59644 25 12.5 25Z" fill="#F0F0F0"/>
<path d="M12.5 0C7.54426 0 3.26223 2.88403 1.24036 7.06523H23.7596C21.7378 2.88403 17.4557 0 12.5 0Z" fill="#338AF3"/>
<path d="M12.5 25C17.4557 25 21.7378 22.116 23.7597 17.9348H1.24036C3.26223 22.116 7.54426 25 12.5 25Z" fill="#338AF3"/>
<path d="M16.2361 12.5L14.7095 13.2181L15.5224 14.6966L13.8647 14.3794L13.6546 16.054L12.5 14.8224L11.3453 16.054L11.1353 14.3794L9.47759 14.6965L10.2905 13.218L8.76392 12.5L10.2905 11.7819L9.47759 10.3034L11.1353 10.6205L11.3454 8.94592L12.5 10.1776L13.6547 8.94592L13.8647 10.6205L15.5225 10.3034L14.7095 11.7819L16.2361 12.5Z" fill="#FFDA44"/>
</g>
<defs>
<clipPath id="clip0_4_43">
<rect width="25" height="25" fill="white"/>
</clipPath>
</defs>
</svg>
