<svg width="34" height="36" viewBox="0 0 34 36" fill="none" xmlns="http://www.w3.org/2000/svg">
<g opacity="0.5">
<path d="M16.2493 0.518307C13.3286 0.686798 10.596 1.53978 8.28459 3.0009C7.17149 3.70646 6.27148 4.46203 5.15336 5.6362C4.47898 6.34438 4.08288 6.82353 3.55641 7.56067C2.27033 9.36141 1.3277 11.4096 0.806246 13.5315C0.442732 15.0137 0.309862 16.0668 0.287299 17.6438C0.262229 19.5472 0.412648 20.8319 0.896497 22.8354C1.06697 23.5409 1.1848 23.9305 1.44051 24.6071C2.03718 26.192 3.03997 27.9032 4.17564 29.2801C5.36144 30.7175 6.79043 32.0207 8.20437 32.9553C8.89379 33.4108 9.7938 33.9057 10.5459 34.24C12.4186 35.0746 15.061 35.5643 17.3273 35.4932C18.9794 35.4432 20.3833 35.2115 21.885 34.7402C24.8307 33.8135 27.5408 31.9602 29.5714 29.4802C30.5767 28.256 31.2987 27.1424 31.8779 25.9261C32.0208 25.6312 32.3968 24.6914 32.5447 24.2649C33.1063 22.6563 33.4422 20.9319 33.55 19.1101C33.5876 18.4546 33.5676 16.7671 33.5124 16.2353C33.3344 14.4872 32.9884 12.9655 32.4494 11.536C32.2439 10.9989 31.6723 9.76157 31.379 9.23241C30.7973 8.17935 29.9926 7.0394 29.1703 6.11271C27.9619 4.74899 26.736 3.70119 25.3948 2.8798C24.9134 2.58495 24.5148 2.36643 24.1839 2.21637C24.0335 2.14792 23.8079 2.03999 23.6875 1.97417C22.5368 1.36866 20.8546 0.857922 19.3329 0.64994C18.3878 0.523571 17.1217 0.468285 16.2493 0.518307ZM18.4429 1.65298C19.9371 1.85043 21.183 2.16898 22.4917 2.69025C24.4171 3.45899 26.2572 4.66738 27.9093 6.24961C28.4458 6.76034 29.4862 8.18461 30.1681 9.33772C31.4592 11.5176 32.111 13.3946 32.3918 15.7509C32.477 16.4722 32.5071 16.9856 32.5071 17.8149C32.5046 20.3106 32.0483 22.5774 31.0907 24.8572C30.6168 25.984 29.8923 27.2056 29.1377 28.1481C27.0995 30.6938 24.5424 32.5578 21.7772 33.5108C19.729 34.2163 17.4401 34.4691 15.2716 34.2269C14.6649 34.1611 13.9228 34.0347 13.617 33.9504C12.4036 33.6135 11.2228 33.187 10.2701 32.7421C9.47792 32.3735 8.56036 31.847 7.88849 31.3731C6.74029 30.5648 5.65977 29.4828 4.86757 28.3455C4.75224 28.1797 4.57174 27.9296 4.46645 27.7927C3.30822 26.2736 2.41573 24.336 1.91433 22.2509C1.51322 20.5897 1.36029 19.2076 1.39037 17.5384C1.42547 15.4823 1.77645 13.5737 2.42325 11.9046C3.02493 10.346 3.89736 8.83751 5.00796 7.42904C5.36395 6.97622 6.41438 5.8784 6.88569 5.46507C8.30966 4.21983 9.82639 3.29576 11.5988 2.59547C12.6969 2.16109 14.2061 1.80041 15.4872 1.66351C16.4348 1.56084 17.7184 1.55558 18.4429 1.65298Z" fill="white"/>
<path d="M15.9059 2.58491C15.8081 2.60334 15.6677 2.64019 15.5925 2.66389C15.4396 2.71654 15.0986 2.8903 14.9858 2.97454C14.8579 3.06668 14.6198 3.31415 14.5195 3.45632C14.1811 3.9302 14.0156 4.67787 14.0582 5.53875C14.0783 5.98104 14.0733 5.9942 13.8852 5.9942C13.7674 5.9942 13.7474 6.00473 13.5292 6.18902C13.1005 6.55232 12.6994 7.04463 12.01 8.05557L11.5813 8.68215L11.5487 9.22711C11.466 10.5276 11.3607 11.3201 11.0724 12.8075C10.9345 13.5157 10.7741 14.2292 10.586 14.9558C10.4732 15.3875 10.4732 15.3796 10.6387 15.4086C10.6913 15.4191 10.7515 15.4402 10.7716 15.456C10.8067 15.4823 10.8041 15.4955 10.7465 15.5771C10.6537 15.7087 10.5986 15.9246 10.6161 16.101C10.6236 16.1826 10.6713 16.3721 10.7214 16.5248C10.8743 16.9829 10.9345 17.2093 10.9345 17.3383C10.9345 17.4226 10.8668 17.6727 10.7214 18.1308C9.97434 20.4712 9.48297 22.3009 9.15455 23.9753C9.10942 24.199 9.05176 24.4254 9.0292 24.4755C8.93394 24.6729 8.68324 24.8598 8.37738 24.9625C8.30217 24.9888 8.15426 25.0494 8.05148 25.0994C7.89354 25.1731 7.84841 25.21 7.7732 25.3258C7.72306 25.4022 7.48239 25.7233 7.2367 26.0419C6.60244 26.8686 6.38684 27.2266 6.24644 27.6689C6.18628 27.8637 6.18628 27.8716 6.28154 28.148C6.31664 28.2507 6.40188 28.5666 6.47207 28.8457C6.625 29.4723 6.74032 29.7382 6.94088 29.9409C7.01609 30.0146 7.11888 30.0962 7.17152 30.1225C7.22417 30.1462 7.28434 30.1989 7.30941 30.241C7.37459 30.3595 7.50245 30.4806 7.61275 30.5332C7.79827 30.6227 7.97627 30.6017 8.56541 30.4121C8.69076 30.3726 8.85873 30.3331 8.94146 30.3226L9.09188 30.3068L9.14954 30.1357C9.22976 29.8908 9.21472 29.6618 9.06931 29.0747C9.00664 28.8194 8.95399 28.585 8.95399 28.5561C8.95399 28.4429 9.31249 28.3718 9.8891 28.3718C10.3429 28.3718 10.8367 28.3349 10.9069 28.2928C10.932 28.2797 11.1401 27.8084 11.3833 27.2082C11.6239 26.6237 11.9398 25.8918 12.0877 25.5812C12.3359 25.0599 12.366 24.9809 12.4613 24.5913C12.8022 23.1907 13.2861 21.8323 13.9153 20.5054C14.0933 20.1263 14.1435 19.9973 14.1435 19.9104C14.1435 19.7841 14.1986 19.684 14.2688 19.684C14.349 19.684 14.6398 19.8078 14.8053 19.9131C15.0635 20.0763 15.4947 20.5581 15.9234 21.1583C16.1365 21.4558 16.3546 21.7559 16.4123 21.8296C16.4699 21.9007 16.5477 22.0297 16.5853 22.1166C16.6981 22.3799 16.866 22.5984 17.4401 23.2118C17.7435 23.5382 18.0343 23.8726 18.0895 23.9568C18.1797 24.1043 18.2073 24.2069 18.5808 25.7602C18.9819 27.4372 19.0948 27.8742 19.3003 28.5561L19.4157 28.9378L19.4182 29.7145L19.4207 30.4911L19.5009 30.6675C19.6363 30.9676 19.7616 31.0808 20.6867 31.7258C21.2232 32.0996 21.6093 32.2629 22.0204 32.2866C22.3112 32.305 22.5068 32.2708 22.7625 32.1549L22.9455 32.0707L22.938 31.61L22.9305 31.1493L22.8026 30.8728C22.7324 30.7201 22.5394 30.37 22.3739 30.0962C22.0405 29.5433 21.875 29.2169 21.7873 28.9378C21.7321 28.7588 21.7296 28.7219 21.7271 27.8058C21.7246 26.7422 21.7446 26.9054 21.4789 25.7128C21.2533 24.6966 21.2107 24.3333 21.2458 23.7568L21.2633 23.4461L21.1154 23.2644C20.9224 23.0301 20.8196 22.8669 20.5363 22.3562C20.263 21.8665 20.0925 21.5927 19.9471 21.4084C19.887 21.3347 19.8168 21.2294 19.7892 21.1715C19.7616 21.1136 19.6463 20.953 19.5335 20.8161C19.2101 20.4185 19.0822 20.1842 19.0822 19.9868C19.0822 19.9289 19.2502 19.7419 19.3906 19.6472C19.4708 19.5893 19.4783 19.4971 19.4182 19.2549C19.3404 18.9337 19.185 18.6863 18.6786 18.0755C18.5182 17.8807 18.3025 17.6095 18.2023 17.47C18.0995 17.3304 17.8839 17.0566 17.7209 16.8645C17.4 16.4853 17.202 16.2142 17.0942 16.022L17.0265 15.8983L16.7858 15.9641C16.653 15.9983 16.5376 16.0194 16.5301 16.0115C16.505 15.9851 16.3997 15.3085 16.3847 15.0611C16.3646 14.7741 16.4073 14.603 16.5326 14.4793C16.6354 14.3766 16.678 14.3608 16.8761 14.3424L17.039 14.3266L17.0791 14.0765C17.1017 13.9396 17.1343 13.571 17.1493 13.2603C17.1945 12.4205 17.212 12.3389 17.39 12.2178C17.4903 12.1494 17.9516 12.1204 18.1747 12.1678C18.448 12.2283 18.6886 12.1757 19.2126 11.9414C19.3956 11.8598 19.4081 11.8571 19.4533 11.8993C19.5209 11.9624 19.546 11.9572 19.6613 11.8466L19.7666 11.7466H20.0073C20.2104 11.7466 20.2655 11.736 20.3558 11.686C20.5237 11.5939 20.6691 11.4359 20.9349 11.0752C21.1806 10.7383 21.3636 10.5329 21.4714 10.4724C21.5265 10.4408 21.6118 10.4539 22.1433 10.575C22.78 10.7146 22.8753 10.7225 22.9555 10.6277C23.0182 10.554 23.0307 10.1986 22.9806 9.94582C22.9355 9.71678 22.933 9.60884 22.9756 9.5246C23.0207 9.43245 23.0633 9.42719 23.0959 9.51407C23.111 9.55356 23.2513 9.93792 23.4068 10.3644C23.7026 11.1753 23.863 11.5781 24.0135 11.865C24.1614 12.1467 24.3995 12.5232 24.4321 12.5232C24.4923 12.5232 24.7154 12.3942 24.8182 12.2994L24.9235 12.202L24.8358 12.0414C24.214 10.9015 23.9408 10.1248 23.9032 9.39296L23.8881 9.09284L23.9608 9.11127C24.0009 9.1218 24.1288 9.19551 24.2441 9.27449C24.3594 9.35347 24.4748 9.41666 24.4998 9.41666C24.5224 9.41666 24.5826 9.36137 24.6302 9.29029C24.7631 9.10074 24.8383 9.04019 24.9511 9.02439C25.0514 9.00859 25.0564 9.00333 25.0965 8.8638C25.2319 8.41098 25.4625 8.15561 25.8711 8.01082C26.1344 7.91604 26.35 7.88972 26.8589 7.88972C27.7163 7.88708 28.4408 7.8081 28.3606 7.72386C28.3455 7.70806 28.333 7.67384 28.333 7.64751C28.333 7.60539 28.3079 7.60012 28.1199 7.60012C27.9344 7.60012 27.8818 7.58959 27.7363 7.52114C27.4054 7.36318 27.3503 7.23418 27.5533 7.09465L27.6737 7.01041L27.601 6.91037C27.5358 6.82612 27.5207 6.77873 27.4932 6.54179C27.4756 6.39173 27.4556 6.24957 27.443 6.22324C27.4205 6.17059 27.25 6.16006 27.2124 6.21008C27.1973 6.22851 27.1798 6.33381 27.1723 6.44175C27.1497 6.73398 27.1522 6.73135 26.6007 6.73135C26.1269 6.73135 26.0592 6.71818 25.8987 6.59708L25.8235 6.54179L25.8887 6.46808L25.9539 6.39437L25.8787 6.33908C25.836 6.30749 25.7633 6.27326 25.7157 6.26536C25.6355 6.2522 25.6305 6.25483 25.6154 6.34698C25.5904 6.47861 25.4776 6.58918 25.3447 6.60761C25.2845 6.61551 25.1191 6.61024 24.9736 6.59708C24.8307 6.58128 24.6703 6.57602 24.6177 6.58392C24.5073 6.60234 24.3895 6.55232 24.3469 6.46545C24.3293 6.43122 24.3243 6.32855 24.3369 6.16796L24.3544 5.92049H24.2692C24.2215 5.92049 24.1514 5.90732 24.1137 5.89153C24.021 5.85467 24.021 5.85204 24.021 5.92312C24.021 5.95734 23.9909 6.04949 23.9533 6.12583C23.8355 6.36277 23.7929 6.37594 23.1185 6.3733C22.2511 6.36804 21.5215 6.32592 21.3887 6.27326C21.1856 6.19428 21.1029 6.07318 21.0728 5.81518C21.0577 5.66775 21.0502 5.65459 20.9875 5.63879C20.8296 5.60193 20.5664 5.70724 20.3558 5.89153L20.2379 5.99683L20.1327 5.93892C19.9898 5.86257 19.7716 5.84414 19.6237 5.89679C19.4733 5.94945 19.3429 6.04685 19.0697 6.30749C18.8014 6.56285 18.646 6.65236 18.4705 6.65236C18.3176 6.65236 18.1421 6.56812 18.1195 6.48651C18.0569 6.2364 18.2123 5.7362 18.448 5.43344C18.478 5.39132 18.5232 5.29128 18.5457 5.2123C18.5984 5.01748 18.5683 4.81214 18.4429 4.51465C18.3903 4.39354 18.3076 4.18293 18.2549 4.0434C18.0945 3.60638 18.0142 3.47475 17.7535 3.20095C17.5429 2.97981 17.4828 2.93242 17.2521 2.81132C16.7933 2.57438 16.3496 2.50066 15.9059 2.58491ZM19.7215 8.07663C19.9296 8.10559 20.1276 8.13719 20.1677 8.14772L20.2354 8.16615L20.1803 8.25039C20.0449 8.44784 19.8118 8.54261 19.3204 8.60053C18.997 8.64002 18.8766 8.67162 18.7037 8.76113C18.5507 8.84011 18.4354 8.96384 18.3552 9.1297C18.3176 9.20605 18.29 9.23237 18.2599 9.22184C18.2374 9.21394 18.1672 9.19551 18.1045 9.17972C18.0418 9.16129 17.9516 9.12707 17.9039 9.10074C17.8162 9.05335 17.6583 8.89802 17.6808 8.88223C17.6858 8.87696 17.9014 8.69268 18.1597 8.47153C18.4204 8.25039 18.661 8.05294 18.6987 8.03188C18.7864 7.98186 19.1725 7.99765 19.7215 8.07663Z" fill="white"/>
</g>
</svg>
