<svg width="35" height="36" viewBox="0 0 35 36" fill="none" xmlns="http://www.w3.org/2000/svg">
<path opacity="0.5" d="M34.3637 3.83333V2.16667C34.3637 1.70667 34.0019 1.33333 33.5542 1.33333H30.3161C29.9955 1.33333 29.7381 1.355 29.5066 1.41667V1.33333C29.5066 0.873333 29.1447 0.5 28.6971 0.5H23.8399C22.4362 0.5 21.9286 1.32 21.6307 2.16667H20.9734C20.7848 1.9075 20.6018 1.57167 20.6018 1.33333C20.6018 0.873333 20.24 0.5 19.7923 0.5H14.1257C13.712 0.5 13.3647 0.8275 13.3202 1.25C13.3016 1.425 12.9575 2.16667 12.4224 2.16667H10.2043C10.1517 2.1025 10.0756 1.98333 10.01 1.83083C9.88052 1.52833 9.58909 1.33333 9.26852 1.33333H1.17329C0.725626 1.33333 0.36377 1.70667 0.36377 2.16667V8.83333C0.36377 11.1858 1.03163 14.1642 1.17248 14.765L1.16601 16.0275L0.61715 16.5617C0.455246 16.7183 0.36377 16.9375 0.36377 17.1667V20.5C0.36377 20.7217 0.44877 20.9333 0.60096 21.0892L1.17329 21.6783V25.365L0.405865 27.7367C0.356484 27.8875 0.350817 28.0483 0.388865 28.2025L1.14091 31.3008L0.406674 33.5708C0.323293 33.825 0.365389 34.105 0.517579 34.3217C0.66896 34.5383 0.913435 34.6667 1.17329 34.6667H12.5066C12.7219 34.6667 12.9276 34.5792 13.0789 34.4225L13.1518 34.3475C13.5817 34.9525 14.1799 35.5 14.9352 35.5H17.3637C17.9596 35.5 18.4809 35.2325 18.9399 34.9958C19.254 34.8333 19.5786 34.6667 19.7923 34.6667H23.8399C24.0553 34.6667 24.2609 34.5792 24.4123 34.4225L24.609 34.22C24.66 34.2867 24.7085 34.3525 24.7563 34.4158C25.1538 34.9492 25.5642 35.5 26.2685 35.5H30.3161C30.7638 35.5 31.1256 35.1275 31.1256 34.6667V34.0675L33.3583 34.6408C33.6003 34.705 33.857 34.6467 34.0545 34.4875C34.2512 34.3292 34.3653 34.085 34.3637 33.8267C34.3629 33.745 34.3127 25.5683 34.3637 21.3433C34.3661 21.1183 34.2803 20.9025 34.1265 20.7433L33.5542 20.155V16.3333C33.5542 16.1125 33.4692 15.9 33.317 15.7442L32.9203 15.3358L33.4101 14.3275L34.1265 13.59C34.2787 13.4333 34.3637 13.2208 34.3637 13L34.3516 8.825C34.3516 8.7575 34.3435 8.69083 34.3281 8.625L33.6028 5.59833L34.2787 4.20667C34.3346 4.09083 34.3637 3.9625 34.3637 3.83333ZM24.7215 7.16667L27.1857 8.83333L26.364 13.8333L19.7923 8.83333L24.7215 7.16667ZM9.26852 28.8333L6.03043 26.3333L7.64947 20.5L14.1257 27.1667L9.26852 28.8333ZM26.4304 28H22.6524L6.03043 7.93833L9.05238 7.16667L28.6971 22.5983L26.4304 28Z" fill="white"/>
</svg>
