<svg width="39" height="36" viewBox="0 0 39 36" fill="none" xmlns="http://www.w3.org/2000/svg">
<g opacity="0.5">
<path d="M0.675747 0.520518C0.50186 0.53328 0.357954 0.565185 0.36395 0.590708C0.36395 0.616232 1.08348 1.96899 1.96491 3.60251L3.56586 6.56964H19.3955H35.2252L36.6163 3.98536C38.2472 0.967183 38.4451 0.590708 38.3971 0.546042C38.3612 0.501375 1.18541 0.482233 0.675747 0.520518ZM11.6546 1.73928C11.6666 1.7648 11.5826 1.94347 11.4627 2.13489L11.2409 2.48585L10.1616 2.50499C9.56795 2.51775 8.91437 2.50499 8.7105 2.48585L8.33875 2.44756L8.5606 2.0647L8.78246 1.68823H10.2035C10.983 1.68823 11.6366 1.70737 11.6546 1.73928ZM17.093 1.92432C17.2549 2.09023 17.2909 2.18594 17.3149 2.47946L17.3389 2.8368H17.075C16.8172 2.8368 16.7992 2.82403 16.7093 2.58156L16.6133 2.31994L16.1217 2.33908L15.624 2.35823L15.576 2.56242C15.546 2.67727 15.546 2.8687 15.576 2.97718L15.624 3.18775L16.2416 3.23241C17.195 3.30899 17.3569 3.49403 17.3209 4.48946C17.2969 5.0446 17.2909 5.0765 17.099 5.27431L16.9072 5.48488L16.1876 5.50403C15.54 5.52317 15.4501 5.51679 15.2642 5.39555C15.0304 5.24241 14.9284 4.98717 14.9284 4.57879V4.29803L15.1743 4.31717C15.4261 4.33632 15.4561 4.36184 15.582 4.70003C15.642 4.87231 15.66 4.87869 16.1217 4.87869C16.6973 4.87869 16.7513 4.82765 16.7153 4.33632C16.6973 4.14489 16.6673 3.96622 16.6433 3.9407C16.6193 3.91517 16.3195 3.87689 15.9718 3.85775C15.3662 3.81946 15.3362 3.81308 15.1503 3.61527C14.9704 3.41746 14.9584 3.37918 14.9404 2.87508C14.9165 2.26251 15.0004 2.01366 15.3062 1.80947C15.4741 1.70099 15.582 1.68823 16.1996 1.70099C16.9012 1.72013 16.9072 1.72013 17.093 1.92432ZM19.8512 1.78394C20.163 1.95623 20.265 2.21785 20.265 2.85594C20.265 3.86413 20.1091 4.03641 19.1497 4.09384L18.5261 4.13213V4.82765V5.51679H18.1963H17.8665V3.60251V1.68823H18.7659C19.4675 1.68823 19.7133 1.71375 19.8512 1.78394ZM22.9452 1.96899L23.1431 2.1987V3.59613C23.1431 4.99355 23.1431 4.99993 22.9932 5.18498C22.7653 5.4785 22.5675 5.52955 21.8599 5.50403C21.2363 5.48488 21.2243 5.4785 21.0325 5.28069C20.8706 5.10203 20.8346 5.01269 20.7986 4.6426C20.7387 4.08746 20.7387 3.11756 20.7986 2.5688C20.8706 1.82861 21.1104 1.67547 22.1238 1.71375L22.7473 1.73928L22.9452 1.96899ZM25.6075 1.78394C25.9133 1.95623 26.0212 2.22423 26.0212 2.82403C26.0212 3.39832 25.9433 3.63441 25.6974 3.83222L25.5475 3.95346L25.8413 4.71279C26.0092 5.12755 26.1411 5.4785 26.1411 5.49126C26.1411 5.50403 25.9972 5.51679 25.8173 5.51679H25.4936L25.2117 4.78298C24.9059 4.00451 24.858 3.95346 24.4862 3.99813L24.3123 4.01727L24.2943 4.76384L24.2764 5.51679H23.9825H23.6827V3.60251V1.68823H24.5522C25.2237 1.68823 25.4696 1.71375 25.6075 1.78394ZM28.8394 2.00728V2.32632H28.3597H27.88V3.92155V5.51679H27.5802H27.2804V3.92155V2.3327L26.8187 2.31356L26.351 2.29442L26.333 2.08385C26.297 1.67547 26.2611 1.68823 27.6102 1.68823H28.8394V2.00728ZM31.3637 1.92432C31.5256 2.09023 31.5616 2.18594 31.5856 2.47946L31.6096 2.8368H31.3457C31.0879 2.8368 31.0699 2.82403 30.98 2.58156L30.884 2.31994L30.3864 2.33908L29.8887 2.35823L29.8707 2.75384C29.8527 3.21327 29.8107 3.18775 30.6262 3.24518C31.4177 3.3026 31.5976 3.51318 31.5976 4.40651C31.5976 5.05098 31.5196 5.22965 31.1778 5.42107C30.956 5.54231 29.8347 5.55507 29.6249 5.43384C29.379 5.30622 29.2411 5.03822 29.2111 4.65536L29.1871 4.30441H29.463C29.6788 4.30441 29.7508 4.32993 29.7748 4.41289C29.9247 4.90422 29.8947 4.87869 30.4044 4.87869C30.938 4.87869 30.998 4.82765 30.998 4.36822C30.998 3.89603 30.95 3.85775 30.3264 3.85775C29.451 3.85775 29.2291 3.63441 29.2291 2.74746C29.2291 1.86051 29.451 1.67547 30.5003 1.70099C31.1719 1.72013 31.1778 1.72013 31.3637 1.92432ZM13.3815 3.47489C13.8911 4.33632 14.3648 5.14669 14.4428 5.27431L14.5807 5.51679H14.155H13.7292L13.5074 5.13393L13.2795 4.75108H12.6379C12.2782 4.75108 11.9904 4.73193 11.9904 4.70003C11.9904 4.6745 12.0863 4.50222 12.2002 4.31717C12.3801 4.04279 12.4461 3.98536 12.59 3.98536C12.6919 3.98536 12.7699 3.96622 12.7699 3.94708C12.7699 3.89603 12.3501 3.15584 12.3201 3.15584C12.3142 3.15584 11.9964 3.6727 11.6246 4.31079C11.2528 4.9425 10.9231 5.4785 10.8871 5.49126C10.8511 5.50403 10.0057 5.51041 9.01031 5.50403L7.19949 5.48488L7.58924 4.81488C7.81109 4.44479 8.00297 4.11298 8.01496 4.06832C8.03295 4.01727 7.94301 3.98536 7.74513 3.9726L7.43933 3.95346L7.65519 3.58337L7.87105 3.21965L8.89638 3.22603C9.46002 3.23241 10.0716 3.25156 10.2575 3.27708L10.5993 3.31537L10.3954 3.64717L10.1915 3.98536H9.56795H8.94435L8.82443 4.19593C8.75847 4.31717 8.66254 4.48946 8.60258 4.57879L8.50064 4.75108H9.49599H10.4913L10.8391 4.17041C12.0503 2.13489 12.3082 1.74566 12.3801 1.82861C12.4221 1.87328 12.8718 2.61346 13.3815 3.47489ZM31.9753 1.86051C31.9334 1.87328 31.8974 1.94347 31.8974 2.01366C31.8974 2.07747 31.8734 2.13489 31.8374 2.13489C31.8074 2.13489 31.7775 2.07747 31.7775 2.01366C31.7775 1.94347 31.7415 1.87328 31.7055 1.86051C31.6635 1.84137 31.7235 1.82861 31.8374 1.82861C31.9513 1.82861 32.0113 1.84137 31.9753 1.86051ZM32.3831 1.90518C32.491 1.80309 32.497 1.80309 32.497 1.98175C32.497 2.08385 32.473 2.13489 32.449 2.10299C32.425 2.0647 32.3711 2.03918 32.3351 2.0328C32.1612 2.02004 32.1372 2.00089 32.1372 1.89242C32.1432 1.79032 32.1432 1.79032 32.2032 1.8988C32.2631 2.01366 32.2751 2.01366 32.3831 1.90518Z" fill="white"/>
<path d="M18.5261 2.90063V3.47491H18.9938C19.2756 3.47491 19.4915 3.44301 19.5335 3.39834C19.5754 3.35368 19.6054 3.14311 19.6054 2.90063C19.6054 2.65816 19.5754 2.44758 19.5335 2.40292C19.4915 2.35825 19.2756 2.32635 18.9938 2.32635H18.5261V2.90063Z" fill="white"/>
<path d="M21.4643 2.44753C21.4283 2.51772 21.4043 3.01543 21.4043 3.60248C21.4043 4.18952 21.4283 4.68723 21.4643 4.75742C21.5182 4.85952 21.5962 4.87866 21.9739 4.87866C22.3517 4.87866 22.4296 4.85952 22.4836 4.75742C22.5615 4.5979 22.5615 2.70915 22.4836 2.49219C22.4296 2.33267 22.4056 2.32629 21.9799 2.32629C21.5962 2.32629 21.5182 2.34543 21.4643 2.44753Z" fill="white"/>
<path d="M24.2823 2.86869V3.41107H24.7081C25.3077 3.41107 25.3616 3.36641 25.3616 2.88145C25.3616 2.65174 25.3317 2.44755 25.2897 2.40288C25.2477 2.35822 25.0319 2.32631 24.75 2.32631H24.2823V2.86869Z" fill="white"/>
<path d="M4.73511 8.66894C4.73511 8.69446 6.27011 11.5404 7.48731 13.7609C7.82909 14.3863 8.12889 14.8967 8.15288 14.8967C8.20684 14.8967 8.24282 14.8393 10.1136 11.4319C10.9231 9.96427 11.5647 8.74551 11.5407 8.71999C11.4987 8.66894 4.73511 8.61789 4.73511 8.66894Z" fill="white"/>
<path d="M14.5387 8.70723C13.8252 8.7519 13.5433 8.84761 13.0397 9.19218C12.53 9.53675 12.2002 9.94513 11.7026 10.8257C10.995 12.0891 8.92636 15.8539 8.8604 16.0198C8.80044 16.1602 8.8604 16.2878 10.6712 19.6059C10.8511 19.9377 10.947 20.0525 10.989 20.0079C11.025 19.9696 11.3008 19.4846 11.6066 18.9359L12.1583 17.9277L14.9944 17.8958L17.8365 17.8639L18.9158 15.8858L20.0011 13.9077L19.6953 13.863C19.5334 13.8439 18.2803 13.8247 16.9251 13.8184C15.564 13.812 14.4488 13.7928 14.4488 13.7609C14.4488 13.7354 14.5687 13.4993 14.7186 13.2377L14.9824 12.7591L17.8425 12.6953L20.6967 12.6315L21.764 10.6853L22.8313 8.73914L22.6154 8.69447C22.3336 8.63704 15.4201 8.64981 14.5387 8.70723Z" fill="white"/>
<path d="M25.7454 8.70088C25.0918 8.73916 24.9899 8.75831 24.6182 8.95612C23.9046 9.32621 23.5269 9.77925 22.7594 11.1575C20.9605 14.3863 15.3122 24.7298 15.1743 25.0424C15.0424 25.3487 15.0244 25.4955 15.0004 26.2676C14.9824 26.8993 15.0004 27.2247 15.0604 27.4544C15.1503 27.7671 15.8159 29.0241 18.1184 33.2483C19.1257 35.0924 19.4016 35.5582 19.4555 35.4944C19.5575 35.3796 27.8201 20.2248 27.8201 20.1546C27.8201 20.1419 26.8487 20.1355 25.6555 20.1419L23.4909 20.161L21.4522 23.8811L19.4076 27.6076L19.1197 27.078C18.9578 26.7844 18.8259 26.5164 18.8259 26.4782C18.8259 26.4399 20.5108 23.3387 22.5675 19.5867L26.3091 12.7591L26.9207 12.74C27.4123 12.7272 27.5263 12.74 27.5023 12.8102C27.4903 12.8549 26.7288 14.2523 25.8174 15.9113C24.906 17.5768 24.1625 18.9487 24.1625 18.9614C24.1625 18.9742 25.1398 18.9742 26.327 18.9678L28.4976 18.9487L29.427 17.2577C31.8674 12.8102 34.056 8.74554 34.02 8.71364C33.9721 8.66259 26.6628 8.64983 25.7454 8.70088Z" fill="white"/>
</g>
</svg>
