<svg width="39" height="41" viewBox="0 0 39 41" fill="none" xmlns="http://www.w3.org/2000/svg">
<g opacity="0.5">
<path d="M18.1043 0.510803C18.0815 0.534832 17.7921 0.574883 17.4571 0.606922C16.0711 0.719055 14.1141 1.19163 12.6291 1.76833C11.5021 2.20886 9.94861 3.04987 8.84443 3.8188C8.25807 4.22729 7.72501 4.61176 7.66409 4.67584C7.60317 4.73191 7.26811 5.03627 6.9102 5.35666C5.94309 6.20569 4.54953 7.79161 3.91748 8.74476C3.11028 9.97024 2.89706 10.3467 2.24217 11.7484C0.84861 14.704 0.20133 17.8438 0.307941 21.1197C0.391706 23.6508 0.81815 25.7814 1.70911 28.0881C1.97564 28.785 2.60769 30.1226 2.93514 30.6913C3.02652 30.8435 3.15597 31.0758 3.22451 31.2039C3.62811 31.9648 4.70183 33.3906 5.69179 34.4879C6.21723 35.0646 7.76309 36.4663 8.28853 36.8347C10.969 38.725 13.4592 39.7983 16.2387 40.2709C16.3681 40.2949 16.5509 40.3269 16.6575 40.351C17.853 40.5672 20.8077 40.5432 22.1784 40.3109C25.6356 39.7182 28.6055 38.3485 31.2632 36.1058C34.0046 33.799 36.3272 30.2908 37.3705 26.8707C37.637 25.9896 38.0177 24.4117 38.0939 23.843C38.1244 23.6187 38.1624 23.3704 38.1777 23.2823C38.3757 22.145 38.3909 19.4217 38.2081 17.9959C37.8274 15.0243 36.7384 11.9006 35.3144 9.67388C35.2535 9.57776 35.0783 9.29743 34.926 9.05713C34.6519 8.64063 34.492 8.41636 33.8523 7.58335C33.3497 6.94258 31.7505 5.31661 31.088 4.78798C29.8163 3.77074 28.4989 2.92172 27.3414 2.36905C27.014 2.21687 26.6789 2.05667 26.5951 2.00861C26.1763 1.80837 24.6228 1.27172 23.9375 1.09551C23.0694 0.87925 22.9247 0.84721 22.1784 0.727066C21.889 0.687016 21.5464 0.630951 21.4169 0.606922C21.0895 0.550854 18.15 0.470757 18.1043 0.510803ZM24.0898 11.3639C24.0593 11.7083 24.0213 12.1409 23.9908 12.3251L23.9527 12.6695H26.7779H29.6031L29.565 12.8457C29.5498 12.9498 29.4051 14.0311 29.2604 15.2566L28.9863 17.4833L29.2528 22.7056C29.4051 25.5811 29.5346 28.1282 29.5422 28.3685L29.565 28.801L29.2604 28.785C29.0929 28.777 27.2957 28.6809 25.2625 28.5687C23.2293 28.4646 21.3712 28.3525 21.1351 28.3284L20.6935 28.2884L20.6782 29.594L20.6554 30.8915L20.1604 30.9876C18.9953 31.2119 15.1573 31.9728 15.005 32.0129L14.8299 32.0529V30.5711C14.8299 29.7542 14.807 29.0894 14.7766 29.0894C14.7385 29.0894 13.5429 29.2495 12.1037 29.4578C10.6644 29.658 9.46886 29.8022 9.4384 29.7782C9.40033 29.7301 9.45363 28.1843 9.77347 20.7192L9.90292 17.8357L9.65924 15.4569C9.52978 14.1513 9.42317 12.9899 9.42317 12.8778V12.6695H12.1265H14.8299V11.7083V10.7472H19.4827H24.1355L24.0898 11.3639Z" fill="white"/>
<path d="M15.7437 21.2879V30.8755L16.033 30.8194C16.1853 30.7954 17.0839 30.6192 18.0282 30.4269L19.7416 30.0825L19.7644 26.5423L19.7796 23.002H21.0361H22.2926V22.3772C22.2926 22.0408 22.3155 21.1357 22.3459 20.3828L22.3916 18.9971L21.0894 18.9811C20.366 18.9651 19.7796 18.9331 19.7796 18.893C19.7796 18.861 19.7796 18.1721 19.7796 17.3551V15.8734H21.2646C22.7419 15.8734 22.7495 15.8734 22.78 15.6891C22.818 15.5129 23.1303 11.9967 23.1303 11.8044C23.1303 11.7323 22.3383 11.7083 19.437 11.7083H15.7437V21.2879Z" fill="white"/>
</g>
</svg>
