<svg width="40" height="25" viewBox="0 0 40 25" fill="none" xmlns="http://www.w3.org/2000/svg">
<path opacity="0.9" d="M36.5357 6.21047C33.3282 -0.354308 29.8915 -0.81293 26.6918 0.751745C25.733 1.22067 24.909 1.82127 24.3044 2.60424H15.6962C15.0924 1.82127 14.2683 1.22067 13.3095 0.751745C10.1098 -0.81293 6.67318 -0.354308 3.46567 6.21047C0.25549 12.7739 -1.50838 22.9592 1.69125 24.5238C3.65817 25.4848 7.04183 22.959 10.1029 19.3491C10.9808 20.9658 12.6935 22.0633 14.6624 22.0633C17.1893 22.0633 19.2928 20.2553 19.7529 17.8626H20.2471C20.7071 20.2553 22.8107 22.0633 25.3376 22.0633C27.2974 22.0633 29.0028 20.9757 29.8844 19.3714C33.1464 23.0688 36.4927 25.411 38.3076 24.5238C41.5097 22.9592 39.7431 12.7739 36.5357 6.21047ZM11.1221 12.2151C11.1221 12.2737 11.1039 12.327 11.0888 12.3805C11.0276 12.5993 10.8583 12.7622 10.6362 12.817C10.5885 12.8274 10.5429 12.8456 10.4915 12.8456H10.0336H8.41744C8.06898 12.8456 7.78685 12.5629 7.78685 12.2151V10.9421H6.51276C6.16429 10.9421 5.88234 10.6594 5.88234 10.3116V8.23754C5.88234 7.88974 6.16438 7.60694 6.51276 7.60694H7.78693V6.3316C7.78693 5.9838 8.06906 5.701 8.41753 5.701H10.0336H10.4916C10.8401 5.701 11.1221 5.9838 11.1221 6.3316V7.60694H12.3963C12.7447 7.60694 13.0269 7.88974 13.0269 8.23754V10.3116C13.0269 10.6594 12.7447 10.9421 12.3963 10.9421H11.1221V12.2151ZM14.6624 20.0051C12.9356 20.0051 11.5357 18.6052 11.5357 16.8784C11.5357 15.1515 12.9356 13.7515 14.6624 13.7515C16.3892 13.7515 17.7892 15.1515 17.7892 16.8784C17.7892 18.6052 16.3892 20.0051 14.6624 20.0051ZM25.3376 20.0051C23.6107 20.0051 22.2108 18.6052 22.2108 16.8784C22.2108 15.1515 23.6107 13.7515 25.3376 13.7515C27.0645 13.7515 28.4644 15.1515 28.4644 16.8784C28.4644 18.6052 27.0645 20.0051 25.3376 20.0051ZM28.2421 10.4745C27.5798 10.4745 27.0436 9.93632 27.0436 9.27331C27.0436 8.61281 27.5798 8.07461 28.2421 8.07461C28.9053 8.07461 29.4414 8.61281 29.4414 9.27331C29.4414 9.9364 28.9052 10.4745 28.2421 10.4745ZM31.1519 12.8587C31.0157 12.912 30.8699 12.9473 30.7149 12.9473C30.6901 12.9473 30.6693 12.9342 30.6445 12.9329C30.0857 12.8991 29.6492 12.4862 29.556 11.9455C29.5449 11.879 29.5162 11.8178 29.5162 11.7475C29.5162 11.0857 30.0517 10.5476 30.7149 10.5476C30.8699 10.5476 31.0157 10.5827 31.1519 10.6363C31.5968 10.8108 31.9134 11.2407 31.9134 11.7475C31.9134 12.2541 31.5968 12.6827 31.1519 12.8587ZM31.1519 7.91319C31.0157 7.96672 30.8699 8.00173 30.7149 8.00173C30.0517 8.00173 29.5162 7.4637 29.5162 6.80186C29.5162 6.14002 30.0517 5.60199 30.7149 5.60199C30.8699 5.60199 31.0157 5.63717 31.1519 5.69062C31.5968 5.86527 31.9134 6.29516 31.9134 6.80186C31.9134 7.30865 31.5968 7.73737 31.1519 7.91319ZM33.1875 10.4745C32.5243 10.4745 31.9889 9.93632 31.9889 9.27331C31.9889 8.61281 32.5244 8.07461 33.1875 8.07461C33.8505 8.07461 34.3861 8.61281 34.3861 9.27331C34.3861 9.9364 33.8506 10.4745 33.1875 10.4745Z" fill="white"/>
</svg>
