<svg width="34" height="36" viewBox="0 0 34 36" fill="none" xmlns="http://www.w3.org/2000/svg">
<g opacity="0.5">
<mask id="mask0_6_22" style="mask-type:luminance" maskUnits="userSpaceOnUse" x="0" y="0" width="34" height="36">
<path d="M33.2846 0.5H0V35.5H33.2846V0.5Z" fill="white"/>
</mask>
<g mask="url(#mask0_6_22)">
<path d="M2.00442 11.1641C0.726878 13.4465 0 16.0602 0 18.8396C0 21.619 0.726878 24.2352 2.00442 26.5176V11.1641Z" fill="white"/>
<path d="M16.6423 2.71161C15.2922 2.71161 13.982 2.87245 12.7249 3.16439V5.70253C13.9698 5.35671 15.2824 5.16692 16.6423 5.16692C24.4332 5.16692 30.7499 11.2694 30.7499 18.7986C30.7499 22.1892 29.4651 25.2903 27.3448 27.6756L26.9426 29.067L26.0526 32.1463C30.4204 29.2399 33.2871 24.3654 33.2871 18.8436C33.2846 9.93197 25.8339 2.71161 16.6423 2.71161Z" fill="white"/>
<path d="M12.7249 27.21H25.4897H25.7687C27.9289 25.0225 29.2595 22.0605 29.2595 18.7986C29.2595 12.0656 23.6117 6.60889 16.6431 6.60889C15.275 6.60889 13.96 6.82362 12.7257 7.21045V27.21H12.7249Z" fill="white"/>
<path d="M11.2156 0.5H1.71973L3.51285 4.10777V31.8946L1.71973 35.5H23.5122L25.4889 28.6721H11.2156V0.5Z" fill="white"/>
</g>
</g>
</svg>
