<svg width="34" height="36" viewBox="0 0 34 36" fill="none" xmlns="http://www.w3.org/2000/svg">
<g opacity="0.5">
<path d="M3.44604 0.581409C3.44604 0.635672 6.37826 3.67443 9.9973 7.36436L16.5221 14.0659L19.7978 10.6744C21.5677 8.80234 23.1526 7.28296 23.2583 7.28296C23.364 7.28296 24.5527 8.44963 25.8735 9.88761L28.2774 12.4923V19.0582V25.5969L30.787 28.1744L33.2965 30.752V22.531C33.2965 15.531 33.2437 14.1744 32.8739 13.4419C32.372 12.4109 21.8582 1.44963 20.828 0.879858C20.2468 0.581409 18.5034 0.500013 11.7672 0.500013C7.19717 0.500013 3.44604 0.527145 3.44604 0.581409Z" fill="white"/>
<path d="M29.3342 4.43412C31.4475 6.60466 33.1909 8.36823 33.2174 8.36823C33.2702 8.36823 33.2966 6.60466 33.2966 4.43412V0.500008H29.4134H25.5038L29.3342 4.43412Z" fill="white"/>
<path d="M0.0119629 12.845C0.0119629 19.4923 0.091212 21.3372 0.408208 22.0698C0.936535 23.4264 11.3974 34.4147 12.6918 35.0388C13.6164 35.4729 14.5674 35.5 22.1753 35.4457L30.6285 35.3643L26.9566 31.4302L23.2848 27.4961L23.2584 21.3101C23.2584 17.9186 23.1527 15.1512 23.047 15.1512C22.9414 15.1512 22.1489 15.8837 21.2771 16.8062C20.4054 17.7016 19.0053 19.0581 18.16 19.8178L16.6279 21.2016L13.4579 17.9729L10.3143 14.7442V21.6628L10.2879 28.5814L7.80479 25.8682L5.29523 23.155V16.3721V9.58916L2.83851 7.0659C1.49128 5.70931 0.302543 4.56978 0.196877 4.56978C0.091212 4.56978 0.0119629 8.28683 0.0119629 12.845Z" fill="white"/>
<path d="M0.0119629 31.5659V35.5H4.02725H8.06895L4.23858 31.5659C2.12527 29.3953 0.328959 27.6318 0.223294 27.6318C0.091212 27.6318 0.0119629 29.3953 0.0119629 31.5659Z" fill="white"/>
</g>
</svg>
