<svg width="36" height="36" viewBox="0 0 36 36" fill="none" xmlns="http://www.w3.org/2000/svg">
<path d="M17.8362 5.48276C20.5987 5.48562 23.2824 6.40335 25.4679 8.09247L29.019 4.54289C25.8785 1.93044 21.9219 0.5 17.8362 0.5C13.7504 0.5 9.79375 1.93044 6.65332 4.54289L10.2044 8.09247C12.3899 6.40335 15.0736 5.48562 17.8362 5.48276Z" fill="#747474"/>
<path d="M30.434 5.86603L26.9102 9.39736C28.8084 11.3825 29.9948 13.9405 30.2838 16.6713C30.5729 19.4021 29.9483 22.1517 28.5078 24.4899L21.862 17.993L18.6578 10.6931V21.2688L25.3949 27.9391C23.2265 29.6025 20.5695 30.5042 17.8362 30.5042C15.1028 30.5042 12.4459 29.6025 10.2775 27.9391L17.0146 21.2688V10.6931L13.8104 17.993L7.16456 24.4899C5.72406 22.1517 5.09948 19.4021 5.38854 16.6713C5.67759 13.9405 6.86397 11.3825 8.76211 9.39736L5.23838 5.86603C2.85482 8.33702 1.25124 11.4544 0.62739 14.8298C0.00354129 18.2052 0.386996 21.6895 1.72999 24.8486C3.07298 28.0077 5.31616 30.7021 8.1801 32.5961C11.044 34.4901 14.4022 35.5 17.8362 35.5C21.2702 35.5 24.6283 34.4901 27.4923 32.5961C30.3562 30.7021 32.5994 28.0077 33.9424 24.8486C35.2854 21.6895 35.6688 18.2052 35.045 14.8298C34.4211 11.4544 32.8175 8.33702 30.434 5.86603Z" fill="#747474"/>
</svg>
