<svg width="54" height="36" viewBox="0 0 54 36" fill="none" xmlns="http://www.w3.org/2000/svg">
<g opacity="0.5">
<path d="M4.1087 0.62458C3.74016 0.752981 3.46522 0.928688 3.26048 1.21928C2.96799 1.62476 2.95629 1.68558 2.97969 2.89525C2.99139 3.59132 2.99139 4.82127 2.97969 5.6525C2.96799 7.13925 2.96799 7.13925 2.72814 7.05139C2.24846 6.86217 1.10189 6.95002 0.90885 7.19331C0.745055 7.39605 0.745055 7.39605 0.932249 7.32171C1.07264 7.27441 1.11944 7.29468 1.08434 7.39605C1.06094 7.4839 0.973198 7.54472 0.90885 7.52445C0.832802 7.51093 0.786003 7.7407 0.786003 8.15294C0.786003 8.51787 0.750904 9.02471 0.721655 9.26124C0.680707 9.61266 0.721655 9.76809 0.949798 10.0452C1.21304 10.3695 1.30079 10.3966 2.08466 10.3966C2.81589 10.3966 2.94459 10.4371 2.99139 10.6128C3.05573 10.9034 2.97969 25.2843 2.91534 25.4871C2.88024 25.602 2.63455 25.6493 2.16071 25.6493C1.68688 25.6493 1.34174 25.7236 1.12529 25.8655C0.797703 26.0953 0.786003 26.1156 0.774304 27.1022C0.750904 29.1093 0.797703 29.1837 2.17241 29.1837H3.09083L3.05573 31.603C3.01479 35.009 3.09668 35.1577 5.21432 35.2929C8.35567 35.4821 17.5516 35.5564 19.0608 35.4078C19.5873 35.3605 20.0553 35.3469 20.5642 35.3605C21.2721 35.374 21.4476 35.3605 21.5763 35.2185C21.6874 35.1172 21.7284 35.1172 21.7284 35.2185C21.7284 35.2929 21.781 35.3605 21.8395 35.3605C21.9039 35.3605 21.9507 35.2456 21.9507 35.0969C21.9507 34.955 21.9097 34.8806 21.8395 34.9212C21.7869 34.9617 21.7284 34.9347 21.7284 34.8604C21.7284 34.6306 21.9916 34.786 22.1086 35.0901C22.2197 35.3672 22.249 35.3672 24.6708 35.3672C26.0221 35.3672 27.8765 35.4078 28.7949 35.4415C31.2694 35.5564 35.1479 35.3942 35.1479 35.1645C35.1479 35.0631 35.2005 34.9888 35.2707 34.9888C35.335 34.9888 35.3701 35.0766 35.3233 35.178C35.2824 35.3402 35.3994 35.3672 36.1072 35.3672C36.5635 35.3807 39.0848 35.3942 41.7172 35.4078C44.3379 35.4213 46.4497 35.3942 46.4205 35.3334C46.3971 35.2861 46.4556 35.2456 46.5491 35.2456C46.6603 35.2456 46.6895 35.3064 46.6486 35.3942C46.5199 35.6308 49.3746 35.4348 49.8543 35.1577C50.6499 34.7049 50.6967 34.5157 50.7025 31.7787C50.7142 30.4271 50.7435 29.2445 50.7903 29.1296C50.8312 28.9809 50.919 28.9539 51.0945 29.0147C51.4104 29.1431 52.5979 29.0756 52.8202 28.9404C52.9606 28.839 52.9489 28.8255 52.7851 28.812C52.6622 28.812 52.5979 28.7512 52.633 28.6498C52.6564 28.5755 52.7324 28.5079 52.7851 28.5214C52.9255 28.562 53.0366 26.5413 52.9138 26.2913C52.6505 25.7506 52.6096 25.7236 51.6151 25.6628L50.6206 25.602L50.5972 17.9993L50.5621 10.4101H51.5332C52.4282 10.4101 52.5043 10.3831 52.7675 10.0587C52.9957 9.7816 53.0424 9.63293 52.9957 9.27476C52.9606 9.03823 52.9313 8.53138 52.9313 8.17997C52.9313 7.75422 52.8904 7.52445 52.8085 7.55148C52.7441 7.565 52.6564 7.50418 52.633 7.40956C52.5979 7.30819 52.6447 7.28116 52.7851 7.33523C52.9606 7.40956 52.9606 7.39605 52.8202 7.22034C52.6447 7.00409 51.5683 6.90272 51.0769 7.05815C50.5855 7.20683 50.5446 7.07167 50.4744 4.80099C50.3515 1.29362 50.1234 0.793529 48.6317 0.840835C48.193 0.854351 47.7835 0.827319 47.7133 0.793529C47.5963 0.671886 45.7419 0.523211 44.8059 0.523211C44.4432 0.536727 43.8114 0.536727 43.3902 0.536727C42.9749 0.536727 40.8163 0.563759 38.5875 0.577275C36.3705 0.590791 34.1358 0.617822 33.621 0.638096C33.1063 0.65837 32.4745 0.685402 32.2054 0.678644C27.9701 0.604306 24.4602 0.577275 24.273 0.631338C24.1326 0.671886 24.0332 0.746223 24.0566 0.793529C24.0683 0.840835 24.0332 0.894898 23.9688 0.908414C23.9162 0.935446 23.8577 0.867867 23.8577 0.780013C23.8577 0.665128 23.3312 0.631338 21.6231 0.631338C19.8857 0.631338 19.4001 0.671886 19.406 0.780013C19.4294 0.867867 19.365 0.942204 19.2656 0.942204C19.1778 0.942204 19.1252 0.894898 19.1544 0.827319C19.2831 0.597549 18.5753 0.563759 13.603 0.563759C10.8418 0.563759 7.70049 0.536727 6.61827 0.516453C5.18507 0.475905 4.50064 0.509695 4.1087 0.62458ZM26.2854 4.03735C41.22 4.06438 46.1631 4.02383 46.1631 3.92246C46.1631 3.80758 46.1982 3.82109 46.2508 3.92246C46.2918 4.01031 46.5784 4.09817 46.8709 4.11168L47.4149 4.15223L47.4266 4.78072C47.45 5.78766 47.5904 15.9719 47.5787 16.1881C47.5436 17.2627 47.5787 25.3654 47.6314 28.1903C47.684 31.0151 47.6723 31.8193 47.567 31.8936C47.491 31.9409 47.0756 31.968 46.6603 31.9544C45.853 31.9139 42.9047 31.9139 31.6029 31.9274C25.7413 31.9409 24.9809 31.968 25.0335 32.1301C25.0745 32.2586 25.0218 32.3194 24.8814 32.3194C24.741 32.3194 24.6825 32.2586 24.7293 32.1301C24.782 31.968 24.0975 31.9544 19.2422 31.9544C16.2003 31.968 12.8074 32.0017 11.7018 32.0423C10.6079 32.0896 9.71868 32.0896 9.71868 32.0288C9.71868 31.8801 9.33844 31.9274 9.19219 32.0896C9.09275 32.2045 9.0284 32.218 8.97575 32.1166C8.9348 32.0153 8.40832 31.968 7.5484 31.9544C6.80547 31.9409 6.15029 31.9071 6.10934 31.8666C6.05669 31.826 6.00989 31.353 6.00989 30.7853C6.00989 29.9406 5.98649 29.7919 5.8461 29.8527C5.73495 29.9 5.6823 29.8392 5.6823 29.677C5.6823 29.5148 5.73495 29.4472 5.8461 29.5013C5.98649 29.5621 6.00989 29.008 6.02159 25.0005C6.06254 9.92352 6.06254 10.0992 5.91045 10.0384C5.8227 9.99786 5.7993 9.95055 5.87535 9.89649C6.03914 9.78161 6.06254 8.26107 5.91045 7.70016C5.8344 7.45011 5.811 7.17304 5.8695 7.08518C5.91045 6.99733 5.95724 6.28774 5.98064 5.53761C5.99234 4.7672 6.00404 4.07789 6.00404 3.97652C6.01574 3.86164 6.08009 3.83461 6.20879 3.9157C6.30823 3.96301 15.3462 4.02383 26.2854 4.03735Z" fill="white"/>
<path d="M40.635 7.21355L38.3127 7.24058L37.8856 7.72039C37.5229 8.12587 37.4469 8.28806 37.3942 8.88276C37.2714 10.0789 37.2714 11.7549 37.3708 14.431C37.4235 15.857 37.4586 17.2423 37.4352 17.5194C37.4118 17.7965 37.3942 20.1145 37.3942 22.6893L37.3825 27.3522L37.6458 27.8456C37.7862 28.1091 38.0611 28.3997 38.2542 28.5011C38.6929 28.7174 43.0744 28.7647 43.6535 28.5619C44.1859 28.3727 44.6129 27.7442 44.6773 27.0481C44.7884 25.8249 44.7416 16.5125 44.6246 16.1611L44.5018 15.8232H43.0042C41.9922 15.8232 41.4657 15.8705 41.378 15.9719C41.2902 16.0732 41.2493 16.5666 41.2493 17.3302V18.5399L41.5769 18.7561L41.9045 18.9859L41.9162 20.3983C41.9162 21.1822 41.9162 22.4392 41.9045 23.2231C41.8928 24.0679 41.9396 24.7234 42.0156 24.8586C42.1033 25.0208 42.115 25.1829 42.0273 25.4262C41.9162 25.7641 41.9045 25.7641 41.0913 25.7168C40.1612 25.6695 39.9916 25.5884 40.1612 25.3384C40.2841 25.1627 40.3367 16.3503 40.2373 12.2077L40.1846 10.1803L40.9685 10.133C42.1385 10.0722 42.1267 10.0586 42.1267 10.9642C42.1267 11.4035 42.1794 11.809 42.2554 11.8968C42.3549 12.0117 42.3549 12.0455 42.2554 12.0455C42.0156 12.0455 42.115 12.3969 42.3783 12.4645C42.7702 12.5523 44.3087 12.478 44.4199 12.3496C44.4608 12.2888 44.531 11.3156 44.5603 10.1803L44.6012 8.11236L44.297 7.76094C44.0338 7.45683 43.8056 7.35547 43.0744 7.22031C43.0042 7.19327 41.8986 7.19327 40.635 7.21355ZM9.4555 7.45683C9.35605 7.57172 9.3268 8.28806 9.35605 10.0384C9.39115 12.8632 9.37945 12.6469 9.50814 12.4104C9.59589 12.2617 9.61929 12.2955 9.61929 12.5591C9.61929 12.7348 9.56664 12.9105 9.4906 12.9375C9.39115 12.9781 9.3619 13.5187 9.3619 14.8162C9.3502 16.3908 9.3268 16.6814 9.163 16.8707C8.99921 17.0464 8.96411 17.3234 8.96411 18.4858C8.96411 19.2562 8.99921 19.8442 9.04016 19.8104C9.13961 19.6955 9.50814 20.0874 9.50814 20.3172C9.50814 20.4051 9.47305 20.4794 9.4321 20.4794C9.37945 20.4794 9.33265 22.2094 9.30925 24.3247C9.29755 26.4399 9.33265 28.17 9.3736 28.17C9.42625 28.17 9.52569 28.3119 9.59004 28.4876C9.71289 28.7917 9.75384 28.8052 10.801 28.8052C12.4155 28.8052 12.3278 29.035 12.2985 24.4463C12.2751 22.4392 12.2576 20.743 12.2342 20.6754C12.1113 20.1348 12.1698 20.1077 13.72 20.1077C15.3989 20.1077 16.0307 19.9658 16.4051 19.513L16.6566 19.1954L16.6917 13.7282C16.7151 10.0451 16.68 8.16642 16.604 8.00423C16.329 7.42304 16.0365 7.37574 12.708 7.33519C10.4032 7.31492 9.53739 7.34195 9.4555 7.45683ZM13.761 10.4776C13.7727 10.606 13.7727 11.9509 13.7844 13.4782C13.7844 15.0055 13.8195 16.1476 13.837 16.0259C13.9248 15.6475 14.0886 15.7961 14.0886 16.2624C14.0886 16.6274 14.0535 16.7017 13.9131 16.6409C13.7902 16.5936 13.761 16.6274 13.8019 16.7896C13.8546 16.9788 13.7902 17.0058 13.135 16.9653C12.7197 16.9382 12.3512 16.8369 12.2634 16.749C12.0879 16.5463 12.0762 16.1813 12.24 16.1813C12.3161 16.1813 12.3395 15.2961 12.2927 13.2957C12.2693 11.7076 12.2693 10.3695 12.3044 10.3357C12.3453 10.2952 12.6846 10.2614 13.0707 10.2614C13.6557 10.2681 13.761 10.3019 13.761 10.4776ZM18.7918 7.41629C18.6046 7.66633 18.669 10.4641 18.8679 10.4168C18.9322 10.4033 18.9966 10.4776 18.9966 10.579C18.9966 10.6804 18.9322 10.7547 18.8679 10.7277C18.7684 10.7142 18.7158 10.9169 18.6924 11.3697C18.669 11.8968 18.6924 12.0252 18.8035 11.9509C18.9147 11.8765 18.9147 11.8901 18.8269 12.0387C18.6514 12.3023 18.5344 26.5818 18.6982 27.4266C18.7977 27.8794 18.9147 28.1227 19.1896 28.3457L19.5523 28.67L22.4129 28.6227C25.601 28.5754 25.8291 28.5079 26.1743 27.7374C26.4141 27.1968 26.5136 22.9461 26.4551 15.5461C26.4317 12.5321 26.4141 9.53153 26.4141 8.90304C26.4141 8.17318 26.3732 7.70688 26.2913 7.6393C26.2152 7.59875 26.1392 7.62578 26.1158 7.70012C26.0631 7.91637 25.8759 7.88934 25.8759 7.65957C25.8759 7.5109 25.7005 7.47035 24.9458 7.47035C23.4483 7.47035 23.5594 7.05136 23.5711 12.8632C23.5828 15.5461 23.6121 18.4993 23.6472 19.4049C23.6998 20.601 23.6823 21.0809 23.5945 21.0809C23.3956 21.0809 23.4541 21.5607 23.6706 21.6958C23.7993 21.7972 23.8227 21.858 23.7232 21.9256C23.6472 21.9999 23.5828 22.6217 23.5594 23.7503C23.5243 25.21 23.4951 25.5141 23.3313 25.7033C23.1441 25.9196 23.1265 25.9196 22.992 25.7033C22.8282 25.4668 22.3719 25.4262 22.0443 25.629C21.7167 25.8182 21.3774 25.4533 21.4652 25.0005C21.5412 24.622 21.5939 14.1607 21.5412 10.3695L21.5003 7.77446L21.0323 7.48387C20.7164 7.28113 20.4883 7.20679 20.3537 7.28113C20.149 7.3825 19.4177 7.3825 19.1019 7.26761C19.0024 7.26761 18.8679 7.31492 18.7918 7.41629ZM28.5142 7.40277C28.3914 7.59199 28.3504 12.1671 28.4733 12.7821C28.5259 13.0186 28.5259 13.6133 28.4967 14.1067C28.4557 14.6 28.4616 15.0528 28.5201 15.1406C28.6605 15.3434 28.5201 15.8097 28.3212 15.8097C28.2334 15.8097 28.1925 15.8705 28.2217 15.9381C28.2568 16.0124 28.21 16.1543 28.1223 16.2624C27.9234 16.4922 27.8707 18.256 28.0579 18.3912C28.1223 18.4317 28.1691 18.5804 28.1691 18.7088C28.1691 18.8372 28.2217 18.9589 28.2919 18.9859C28.3914 19.0264 28.4206 20.155 28.4206 23.1218C28.4089 25.4938 28.4557 27.2779 28.5201 27.3725C28.5727 27.4469 28.5727 27.5482 28.5318 27.5753C28.4791 27.6158 28.4557 27.8794 28.4791 28.1564L28.5201 28.67L31.4333 28.6295C35.7738 28.5889 35.5223 28.9471 35.534 22.7433C35.534 18.5737 35.5223 18.3844 35.3176 18.1276C34.6624 17.3099 34.5863 17.1545 34.7618 17.0464C35.2006 16.7693 35.3059 16.1881 35.3293 14.2959C35.341 13.2889 35.3644 11.4575 35.3819 10.2276C35.417 8.11236 35.4053 7.97044 35.183 7.73391C34.8437 7.34195 34.3348 7.26761 31.3748 7.2541C29.3098 7.2541 28.602 7.28113 28.5142 7.40277ZM32.5974 10.2817C32.6617 10.4101 32.6617 11.3629 32.5974 15.0595C32.5857 15.9786 32.533 16.0327 31.7141 15.8772L31.2461 15.8029L31.1817 14.7081C31.1466 14.0999 31.1174 13.5255 31.1057 13.4241C31.1057 13.3227 31.1408 12.5388 31.1817 11.6873L31.2578 10.1465H31.8896C32.2347 10.1397 32.5506 10.2006 32.5974 10.2817ZM32.5506 19.1413C32.5915 19.2157 32.6383 20.1888 32.6383 21.2971C32.6383 22.4054 32.65 23.8314 32.65 24.4734C32.6617 25.1018 32.6383 25.683 32.5974 25.7439C32.5096 25.906 31.3748 25.8452 31.1876 25.656C31.0647 25.5411 31.0472 25.3924 31.1115 25.0478C31.1642 24.7977 31.211 23.3718 31.211 21.8715C31.211 19.5265 31.2344 19.1346 31.3865 19.0129C31.5912 18.8372 32.4336 18.9251 32.5506 19.1413Z" fill="white"/>
</g>
</svg>
