<svg width="20" height="36" viewBox="0 0 20 36" fill="none" xmlns="http://www.w3.org/2000/svg">
<g opacity="0.5">
<path d="M8.75925 0.526566C8.57681 0.547066 8.19824 0.612675 7.91545 0.670082C7.63266 0.731586 7.22216 0.805397 6.99411 0.834099C4.81846 1.14574 3.45469 1.6993 2.39652 2.69571C2.03163 3.04015 1.65762 3.51581 1.41588 3.95456C1.17871 4.37691 0.718036 5.45123 0.645058 5.75467C0.581203 6.0048 0.56752 7.02992 0.535592 13.9761C0.517348 18.339 0.480859 22.9521 0.453492 24.2273C0.426126 25.5026 0.407881 27.3724 0.40332 28.3811C0.40332 30.0746 0.412443 30.255 0.494542 30.6282C0.722597 31.6246 1.18783 32.3996 1.9997 33.1254C3.43645 34.4211 5.63946 35.2207 8.40805 35.4667C9.19256 35.5364 10.8346 35.4913 11.6464 35.3806C13.0011 35.2002 14.2463 34.8599 15.3409 34.3801C16.5314 33.8552 17.4071 33.2607 18.187 32.4488C18.634 31.9854 18.7389 31.8132 18.9715 31.1653C19.2771 30.3083 19.2863 30.1976 19.2863 27.7824C19.2863 26.581 19.3091 23.2555 19.3319 20.3852L19.382 15.1735L19.2042 14.829C18.5474 13.5497 17.4025 12.7173 15.8061 12.3564C14.8346 12.135 14.0684 12.0735 12.4446 12.0776C11.0398 12.0776 10.4104 12.1186 9.91321 12.2334C9.47534 12.3359 9.09677 12.5205 8.87328 12.746C8.75925 12.8608 8.65435 12.951 8.64066 12.951C8.62698 12.951 8.6133 11.643 8.6133 10.0438V7.13653L8.8003 6.98481C9.03292 6.79619 9.37956 6.64857 9.73077 6.59117C10.196 6.51326 10.8437 6.66908 11.204 6.94381C11.3363 7.04222 11.3545 7.08323 11.35 7.22674C11.3454 7.32105 11.3454 8.12065 11.3454 9.00225L11.35 10.6137H15.3865H19.4231V8.46919C19.4185 6.8495 19.4049 6.25083 19.3592 6.0171C19.2133 5.29542 18.6705 4.10628 18.1688 3.4133C17.8404 2.96635 16.9829 2.18316 16.504 1.89202C15.4686 1.26875 14.1505 0.862804 12.5586 0.674183C11.3317 0.530666 9.40693 0.456856 8.75925 0.526566ZM14.8529 18.6876C15.0673 18.786 15.2907 19.0566 15.3637 19.3067C15.3865 19.3847 15.4185 19.9423 15.4367 20.541L15.4686 21.6358L15.3364 21.6604C15.1995 21.685 14.5017 21.7875 12.9828 22.009C12.513 22.0787 12.0797 22.1361 12.0113 22.1361C11.8608 22.1361 11.692 22.2878 11.6191 22.4887C11.5871 22.5912 11.5552 23.0915 11.537 23.8378C11.5142 24.867 11.5005 25.0433 11.4321 25.1376C11.3363 25.2647 11.204 25.3057 10.5746 25.396C9.84479 25.4985 9.50271 25.6707 9.28834 26.0438C9.20624 26.1955 9.20168 26.2776 9.22448 28.3196C9.23361 29.4841 9.23361 30.6815 9.21992 30.9767L9.19256 31.5139L8.97818 31.6451C8.80942 31.7476 8.68627 31.7886 8.42629 31.8173C8.21192 31.8419 8.07965 31.8747 8.05228 31.9157C8.02491 31.9649 7.90633 31.9772 7.47302 31.9772C6.95762 31.9772 6.92569 31.9731 6.92569 31.8952C6.92569 31.8255 6.89376 31.8132 6.74781 31.8132C6.56992 31.8132 6.56536 31.8091 6.55168 31.6574C6.538 31.5262 6.52431 31.5057 6.43309 31.518C6.30994 31.5344 6.3145 31.4975 6.49695 31.1243L6.60185 30.907L6.60641 25.5354L6.61097 20.1637L6.51519 20.094C6.43309 20.0366 6.42397 19.9997 6.45134 19.848C6.47414 19.7127 6.50607 19.6676 6.58817 19.6512C6.68395 19.6307 6.69764 19.602 6.69764 19.4503C6.69764 19.155 6.95762 19.0156 7.65547 18.9336C8.05684 18.8885 9.07397 18.8885 9.16063 18.9377C9.19712 18.9582 9.27009 19.0812 9.32483 19.2124C9.46622 19.561 9.58025 19.6061 10.2553 19.5774C10.871 19.5569 11.0216 19.52 12.3306 19.0689C13.6533 18.6138 13.8449 18.5687 14.3603 18.5851C14.5564 18.5933 14.7252 18.6261 14.8529 18.6876Z" fill="white"/>
<path d="M10.4423 22.4928C10.4423 22.5133 10.5517 22.5994 10.6795 22.6937C11.0033 22.9193 11.2496 23.2555 11.0443 23.1817C10.871 23.1243 10.5016 23.0792 10.1777 23.0792C9.81285 23.0792 9.63952 23.1325 9.42515 23.317L9.29744 23.4236V24.1453C9.29744 25.113 9.2199 25.0474 10.3237 25.0474H11.1629L11.2542 24.9408C11.3454 24.8383 11.3499 24.7809 11.3499 23.8378V22.8454L11.1629 22.6527C10.9805 22.4682 10.9714 22.4641 10.7068 22.4641C10.5609 22.4641 10.4377 22.4764 10.4423 22.4928Z" fill="white"/>
</g>
</svg>
