<svg width="34" height="36" viewBox="0 0 34 36" fill="none" xmlns="http://www.w3.org/2000/svg">
<g opacity="0.5">
<path d="M3.06156 0.746772C1.97353 1.16561 1.24818 1.88361 0.713236 3.08027C0.441229 3.69855 0.423096 3.7883 0.423096 4.88524C0.423096 5.97222 0.441229 6.06197 0.722303 6.7301C1.20285 7.85697 2.04607 8.68466 3.10689 9.07358C3.58744 9.25308 3.84131 9.28299 4.54853 9.25308C5.28294 9.22316 5.50055 9.1733 6.01736 8.90405C9.29957 7.20877 9.06384 2.05313 5.64562 0.746772C4.78427 0.417689 3.91385 0.417689 3.06156 0.746772Z" fill="white"/>
<path d="M14.5674 1.00609C12.6271 1.11578 9.17264 1.64431 9.17264 1.81384C9.17264 1.8637 9.28144 2.13295 9.40838 2.41217C10.2153 4.16728 9.98866 6.76006 8.8553 8.48525L8.53796 8.96392L8.91877 9.08359C9.23611 9.17334 9.30864 9.16336 9.37211 9.03372C9.48998 8.80436 9.71665 8.83428 9.71665 9.07361C9.71665 9.26309 9.65318 9.28303 9.17264 9.293C9.14544 9.30297 9.00943 9.27306 8.87343 9.23317C8.63769 9.17334 8.61049 9.20325 8.40195 9.69189C8.16621 10.2404 8.13901 10.6193 8.22968 11.6564C8.28408 12.155 8.32035 12.2647 8.45635 12.2647C8.55609 12.2647 8.62862 12.2049 8.62862 12.1351C8.62862 12.0553 8.66489 12.0653 8.72836 12.165C8.8009 12.2747 8.80996 12.2049 8.76463 11.8758C8.71929 11.5168 8.73743 11.457 8.8553 11.5068C8.92783 11.5368 9.05477 11.5966 9.1273 11.6265C9.22704 11.6764 9.28144 11.5966 9.32677 11.3672C9.35398 11.1678 9.44464 11.0182 9.55345 10.9883C9.68945 10.9584 9.65318 10.9085 9.38118 10.7489C8.9097 10.4697 8.8825 10.4398 8.98223 10.1506C9.05477 9.93122 9.1545 9.88136 9.75292 9.77167C10.1337 9.70186 10.442 9.61211 10.442 9.57222C10.442 9.54231 10.2879 9.46253 10.1065 9.39272L9.76199 9.28303L10.17 9.34286C10.3967 9.37278 10.6505 9.43261 10.7321 9.48247C10.9316 9.60214 11.4394 9.60214 11.4394 9.48247C11.4394 9.38275 10.0612 8.77445 9.84359 8.77445C9.77105 8.77445 9.71665 8.72459 9.71665 8.67472C9.71665 8.40547 10.0793 8.49522 11.0313 9.00381C12.0015 9.52236 12.0922 9.55228 12.5637 9.50242C12.9173 9.46253 13.1258 9.48247 13.2709 9.59217C13.5247 9.7617 15.0842 10.37 15.2928 10.37C15.5195 10.37 16.7072 9.67195 16.6528 9.57222C16.6256 9.52236 16.2539 9.36281 15.8368 9.20325C15.4107 9.05367 15.0661 8.89411 15.0661 8.85422C15.0661 8.72459 16.1088 8.76447 17.2422 8.92403C18.3483 9.07361 18.9105 9.2232 19.654 9.55228C20.0892 9.74175 20.2342 9.75172 20.2342 9.57222C20.2342 9.53234 20.1345 9.45256 20.0076 9.39272C19.7537 9.26309 19.6993 8.90409 19.9169 8.81434C20.1073 8.73456 20.8598 9.00381 21.3041 9.31295C21.6215 9.53234 21.694 9.63206 21.6577 9.80159C21.6215 9.97111 21.6849 10.0808 21.966 10.3002C22.1655 10.4498 22.3559 10.6692 22.4012 10.7988C22.4466 10.9185 22.5644 11.1079 22.6732 11.2077C22.773 11.3174 22.8636 11.447 22.8636 11.5068C22.8636 11.5667 23.1175 11.8958 23.4348 12.2448L23.997 12.873L23.7794 13.0525L23.5618 13.232L24.0061 13.3018C24.4685 13.3716 25.1394 13.7207 25.2029 13.9301C25.221 13.9999 25.1576 14.0896 25.0669 14.1196C24.7767 14.2392 23.589 14.9971 23.589 15.0669C23.589 15.1068 23.7069 15.1666 23.8429 15.2065C24.0242 15.2464 24.2146 15.1866 24.5047 15.0171C25.4386 14.4486 26.5357 14.4786 27.9411 15.1367C29.4009 15.8148 30.5161 16.8519 31.0692 18.0686C31.2414 18.4575 31.3865 18.8464 31.3865 18.9361C31.3956 19.1854 31.7945 18.0686 32.3385 16.3035C32.81 14.7777 33.2724 12.7633 33.4628 11.3672C33.6442 10.0609 33.753 7.80714 33.6895 6.50078L33.626 5.1645L33.2089 4.82545C32.6015 4.33681 30.779 3.3695 29.5731 2.90081C25.5112 1.3252 20.3158 0.667032 14.5674 1.00609Z" fill="white"/>
<path d="M7.8126 8.99384C7.51339 9.53234 7.42273 10.0509 7.49526 10.9384C7.54966 11.6963 7.57686 11.7661 7.74913 11.7661C7.93954 11.7661 7.9486 11.7163 7.9758 10.9085C7.99394 10.2503 7.96674 10.001 7.867 9.88136C7.74007 9.73178 7.74913 9.66197 7.9486 9.19328C8.19341 8.62486 8.09367 8.48525 7.8126 8.99384Z" fill="white"/>
<path d="M16.4986 10.2005C15.864 10.6692 15.8277 10.7888 16.2176 11.3473C16.6165 11.9356 16.7344 11.9755 17.7861 11.8658C18.312 11.816 19.0827 11.7761 19.4998 11.7661C20.0619 11.7661 20.2433 11.7362 20.207 11.6365C20.1889 11.5766 20.071 11.2276 19.9622 10.8686C19.8443 10.5096 19.7083 10.1706 19.6539 10.1008C19.5451 9.97111 18.2848 9.77167 17.5504 9.77167C17.1424 9.77167 16.9973 9.8315 16.4986 10.2005Z" fill="white"/>
<path d="M1.23002 10.4797C1.43856 12.2049 2.20018 15.5954 2.57192 16.4331C2.88019 17.1212 3.75968 18.0486 4.50317 18.4674C5.37359 18.9561 6.61575 19.3749 8.12992 19.6841C11.4937 20.3821 13.4431 21.0901 15.8821 22.5062C19.0646 24.3511 21.7665 26.9638 22.7729 29.1676C23.0903 29.8657 23.3532 30.9327 23.2897 31.2718C23.2716 31.4014 23.2897 31.5111 23.3351 31.5111C23.4802 31.5111 25.221 29.5964 25.9917 28.5892C27.4968 26.6247 29.5912 23.1245 29.6819 22.4264C29.7635 21.8081 29.5187 21.2696 29.02 20.9904C28.8931 20.9106 28.34 20.8109 27.7869 20.7511C26.4088 20.6115 25.3842 20.1328 24.686 19.3051L24.4684 19.0558L24.0695 19.4447C23.5346 19.9633 23.0631 20.053 22.4465 19.7439C21.703 19.3849 21.2316 18.7467 21.2316 18.1084C21.2316 17.899 21.15 17.8392 20.6241 17.6497C20.2795 17.5201 19.6086 17.181 19.119 16.8819C18.2758 16.3633 18.2032 16.3434 17.7861 16.4032C17.4144 16.463 17.2512 16.4231 16.8251 16.2137C16.544 16.0641 16.2992 15.9644 16.2901 15.9744C16.272 15.9943 16.1813 16.1838 16.0816 16.4132C15.6917 17.2508 14.5855 18.0486 13.7877 18.0486C13.0532 18.0486 11.9743 17.3007 11.6025 16.5229C11.4484 16.1938 11.4031 15.9445 11.4121 15.406C11.4121 15.0171 11.4303 14.6182 11.4484 14.5184C11.4756 14.3689 11.4212 14.309 11.1855 14.2492C11.0223 14.2093 10.8318 14.0996 10.7593 13.9999C10.6505 13.8304 10.6596 13.8004 10.8046 13.7406C10.8953 13.7007 11.0132 13.601 11.0585 13.5013C11.1311 13.3617 11.2217 13.3417 11.5663 13.3916C11.9561 13.4514 12.0105 13.4315 12.337 13.1124C12.5274 12.9229 12.9172 12.6536 13.1892 12.5041C13.6154 12.2946 13.7786 12.2647 14.1322 12.3246C15.6282 12.5639 16.6075 13.6209 16.6075 14.9971C16.6075 15.2963 16.6347 15.3162 17.2693 15.5256L17.9222 15.745L17.632 15.4758C17.4688 15.3262 17.224 14.9672 17.088 14.678C16.9429 14.3888 16.5893 13.8104 16.2901 13.4016C15.8096 12.7434 15.6917 12.6337 15.2746 12.5041C14.8847 12.3844 14.7487 12.2747 14.5402 11.9356C14.2229 11.4071 13.9962 11.2874 13.2074 11.2276L12.5727 11.1678L13.162 11.3273C13.4884 11.4171 13.8058 11.5467 13.8783 11.6165C13.9781 11.7262 13.8965 11.7362 13.4068 11.6963C13.0804 11.6664 12.6724 11.6664 12.4911 11.7063C12.1919 11.7661 12.1647 11.806 12.1647 12.1251C12.1647 12.4043 12.1103 12.5041 11.8745 12.6636C11.5119 12.9029 11.4031 12.9129 11.2217 12.7035C11.0041 12.4741 11.0495 12.0254 11.3124 11.6764C11.4756 11.457 11.5119 11.3672 11.4121 11.3672C11.2671 11.3672 11.0948 11.5667 10.9407 11.8958C10.7774 12.2647 10.5961 12.1949 10.2244 11.6464L9.86169 11.1279L9.78009 11.3971C9.71662 11.6066 9.75289 11.7561 9.90703 12.0653C10.1065 12.4542 10.1065 12.4841 9.9705 12.7434C9.69849 13.2221 9.58969 13.232 9.10914 12.8232C8.69207 12.4642 8.67393 12.4542 8.64673 12.6736C8.5742 13.1822 9.08194 13.6608 9.69849 13.6608C9.90703 13.6608 10.0974 13.7007 10.1246 13.7606C10.1518 13.8104 10.2697 13.8603 10.3785 13.8603C10.5508 13.8703 10.5508 13.8902 10.306 14.0298C9.53529 14.4885 8.75553 14.3489 8.01205 13.611C7.35923 12.9628 7.2323 12.6138 7.30483 11.6265C7.33203 11.1778 7.3139 10.6592 7.26856 10.4598L7.1779 10.0908L6.69735 10.38C5.35545 11.1778 3.27007 11.1478 1.8103 10.3002C1.54736 10.1506 1.29349 10.001 1.24815 9.98108C1.20282 9.96114 1.19375 10.1706 1.23002 10.4797Z" fill="white"/>
<path d="M13.7424 10.5994C13.7514 10.7091 13.697 10.8187 13.6245 10.8487C13.5338 10.8786 13.5157 10.8387 13.552 10.6791C13.5792 10.5694 13.561 10.4897 13.5157 10.5296C13.4703 10.5595 13.4341 10.6692 13.4341 10.7789C13.4341 10.9185 13.4976 10.9683 13.7061 10.9683C13.9237 10.9683 13.9781 10.9284 13.9781 10.7589C13.9781 10.6492 14.0144 10.5894 14.0688 10.6193C14.1232 10.6592 14.1413 10.7689 14.1141 10.8786C14.0778 11.0082 14.096 11.0681 14.1957 11.0681C14.2864 11.0681 14.3408 10.9783 14.3408 10.8187C14.3408 10.6791 14.3317 10.5694 14.3136 10.5694C14.3045 10.5694 14.1685 10.5296 14.0144 10.4797C13.7696 10.3999 13.7424 10.4199 13.7424 10.5994Z" fill="white"/>
<path d="M14.513 10.729C14.513 10.7789 14.4948 10.8985 14.4767 10.9982C14.4404 11.2276 14.4858 11.2376 15.3834 11.3074L16.1088 11.3572L15.5647 11.068C14.9482 10.739 14.522 10.6093 14.513 10.729Z" fill="white"/>
<path d="M20.334 10.8587C20.2342 10.9285 20.2524 11.0182 20.4156 11.3473C20.5878 11.6864 20.6966 11.7761 21.1318 11.9257C21.4129 12.0155 21.694 12.1152 21.7575 12.1451C22.1383 12.2947 21.3222 11.1778 20.8598 10.9085C20.5697 10.749 20.5062 10.739 20.334 10.8587Z" fill="white"/>
<path d="M9.30864 11.8658C9.33585 11.9157 9.30864 12.0653 9.25424 12.1849L9.14544 12.4143L9.02757 12.1151L8.9097 11.816L8.90063 12.0852C8.90063 12.2946 8.97317 12.3944 9.17264 12.514L9.44465 12.6736V12.3744C9.44465 12.2149 9.48998 12.0453 9.54438 12.0054C9.61692 11.9656 9.60785 11.9157 9.52625 11.8559C9.35398 11.7362 9.23611 11.7462 9.30864 11.8658Z" fill="white"/>
<path d="M17.2604 12.2348L16.8705 12.2747L17.206 12.7933C17.3964 13.0825 17.5777 13.3517 17.614 13.3916C17.6502 13.4415 17.8316 13.3617 18.022 13.2321C18.5116 12.883 19.2188 12.6836 20.2796 12.5839L21.1863 12.5041L20.5063 12.3944C19.7266 12.2548 17.8406 12.165 17.2604 12.2348Z" fill="white"/>
<path d="M16.0635 12.7434C16.0635 12.7833 16.2629 13.0326 16.4987 13.2919C16.7979 13.6209 17.0064 13.7606 17.1787 13.7606C17.5051 13.7606 17.487 13.6409 17.088 13.2619C16.671 12.8531 16.0635 12.5539 16.0635 12.7434Z" fill="white"/>
<path d="M22.8182 13.0526C22.782 13.1722 22.646 13.262 22.4012 13.3019C21.9841 13.3717 21.1409 13.8105 21.1409 13.96C21.1409 14.0099 21.4038 13.9201 21.7211 13.7506C22.0385 13.5911 22.519 13.4315 22.782 13.3916C23.2625 13.3318 23.4076 13.242 23.4076 12.9828C23.4076 12.7833 22.8817 12.8332 22.8182 13.0526Z" fill="white"/>
<path d="M14.2954 13.98C14.1956 14.0398 14.0234 14.1794 13.9146 14.2891L13.7151 14.4886L13.9236 14.6681C14.0415 14.7778 14.1956 14.8575 14.2682 14.8575C14.377 14.8575 14.8847 14.0897 14.8847 13.9202C14.8847 13.8204 14.4948 13.8603 14.2954 13.98Z" fill="white"/>
<path d="M15.0298 14.3788C14.9029 14.6182 14.7941 14.8675 14.7941 14.9273C14.7941 15.027 15.7824 15.2065 15.864 15.1168C15.9546 15.0171 15.7733 14.5384 15.5285 14.2392L15.2746 13.9201L15.0298 14.3788Z" fill="white"/>
<path d="M20.9233 14.6481C20.6241 14.9971 20.6422 15.0071 21.6123 15.3461C22.2108 15.5456 22.2289 15.5456 22.6006 15.3661C22.9452 15.1965 22.9633 15.1666 22.8001 15.0769C22.6278 14.9771 21.2587 14.3589 21.2043 14.3589C21.1862 14.3589 21.0593 14.4885 20.9233 14.6481Z" fill="white"/>
<path d="M13.3525 15.1367C13.2074 15.4259 13.1893 16.4531 13.3253 16.4531C13.4159 16.4531 13.8874 15.6154 13.8874 15.4359C13.8874 15.2963 13.6154 14.9572 13.4975 14.9572C13.4703 14.9572 13.3978 15.037 13.3525 15.1367Z" fill="white"/>
<path d="M19.8988 15.6154C19.6358 15.8647 19.4182 16.1041 19.4182 16.1439C19.4182 16.1838 19.5905 16.2736 19.79 16.3434L20.1708 16.473L20.5606 16.0442C20.7782 15.8049 20.9596 15.5755 20.9596 15.5356C20.9596 15.4758 20.479 15.1467 20.3974 15.1567C20.3793 15.1567 20.1526 15.3661 19.8988 15.6154Z" fill="white"/>
<path d="M24.677 15.3162C24.6044 15.3461 24.4865 15.396 24.414 15.4159C24.3233 15.4458 24.3868 15.5456 24.5954 15.7151C24.7586 15.8447 24.949 16.0641 25.0124 16.1838C25.1847 16.5129 25.1484 17.3805 24.949 17.9588C24.8583 18.248 24.7948 18.5173 24.822 18.5671C24.8946 18.6968 25.5383 18.986 26.0551 19.1256C26.2909 19.1954 27.1159 19.2851 27.8957 19.335C29.0109 19.4148 29.3917 19.4746 29.6819 19.6342L30.0445 19.8336L29.9901 19.4646C29.9085 18.8962 29.4461 17.9489 28.9384 17.3306C28.3944 16.6625 27.3426 15.8647 26.6082 15.5555C26.1005 15.3461 24.949 15.2065 24.677 15.3162Z" fill="white"/>
<path d="M15.2294 15.6353C14.8758 15.6553 14.7035 15.7051 14.7035 15.7949C14.7035 16.0242 14.9936 16.8519 15.0752 16.8519C15.2384 16.8519 15.9003 15.6952 15.7734 15.6253C15.7643 15.6154 15.5104 15.6154 15.2294 15.6353Z" fill="white"/>
<path d="M21.0956 16.2038C20.869 16.4929 20.6876 16.7522 20.6876 16.7821C20.6876 16.822 21.1954 17.0514 21.286 17.0514C21.3042 17.0514 21.3223 16.9916 21.3223 16.9218C21.3223 16.8619 21.4492 16.6026 21.5943 16.3533C21.9117 15.8248 21.9207 15.7949 21.685 15.7251C21.558 15.6852 21.4039 15.8148 21.0956 16.2038Z" fill="white"/>
<path d="M13.8059 16.3434C13.6517 16.5528 13.5248 16.7821 13.5248 16.832C13.5248 16.9816 14.1413 17.1611 14.4043 17.0913C14.5221 17.0514 14.6128 17.0115 14.6128 16.9816C14.6128 16.8519 14.2139 15.9544 14.1595 15.9544C14.1141 15.9544 13.96 16.1339 13.8059 16.3434Z" fill="white"/>
<path d="M23.7794 16.7124C23.5074 16.9617 23.4077 17.2509 23.5799 17.2509C23.6797 17.2509 24.133 16.6725 24.133 16.5428C24.133 16.4032 24.0786 16.4331 23.7794 16.7124Z" fill="white"/>
<path d="M24.2509 16.8818C24.133 17.0613 24.0424 17.2707 24.0424 17.3306C24.0424 17.5101 24.668 17.4802 24.7314 17.3007C24.7858 17.1411 24.6136 16.5527 24.5048 16.5527C24.4776 16.5527 24.3597 16.7023 24.2509 16.8818Z" fill="white"/>
<path d="M23.181 17.6198C23.0722 17.909 22.9725 18.5472 23.036 18.5472C23.1448 18.5472 23.3896 17.6797 23.317 17.56C23.2717 17.4702 23.2354 17.4802 23.181 17.6198Z" fill="white"/>
<path d="M23.9064 18.2181C24.0152 18.8863 24.0786 18.9162 24.396 18.4475C24.5501 18.2082 24.677 17.9788 24.677 17.929C24.677 17.8891 24.4866 17.8492 24.26 17.8492H23.8429L23.9064 18.2181Z" fill="white"/>
<path d="M23.2535 18.637C23.1447 18.8464 23.0813 19.0458 23.1085 19.0857C23.181 19.1655 23.7703 19.1655 23.7703 19.0857C23.7703 18.9262 23.5527 18.2481 23.5074 18.2481C23.4802 18.2481 23.3623 18.4276 23.2535 18.637Z" fill="white"/>
<path d="M5.84514 22.0375C5.5278 22.1472 5.27393 22.4763 5.27393 22.7754C5.27393 23.0946 6.47075 25.2186 7.62225 26.9239C9.42656 29.6064 11.8655 32.1493 14.0688 33.6551C15.0843 34.3432 17.1697 35.5 17.3963 35.5C17.9404 35.5 21.7394 33.0867 22.2471 32.4286C22.9543 31.5111 22.7549 30.0951 21.7394 28.6989C19.2823 25.3184 12.5093 22.1971 7.17797 21.9876C6.60676 21.9577 6.00834 21.9876 5.84514 22.0375Z" fill="white"/>
</g>
</svg>
