<svg width="36" height="36" viewBox="0 0 36 36" fill="none" xmlns="http://www.w3.org/2000/svg">
<path d="M11.4579 0.568922C9.94097 0.890585 7.80309 1.35776 7.2922 1.48796C6.74987 1.62581 6.06606 1.80196 5.83813 1.87089C5.71237 1.90918 5.45299 1.96279 5.27222 1.99343C4.88708 2.0547 4.89494 2.13129 5.31152 2.25382C5.73595 2.39168 6.62411 2.83588 7.14286 3.18052C7.66947 3.52516 8.3297 4.22209 8.69125 4.80415C8.96635 5.24835 9.33576 6.16739 9.33576 6.39715C9.33576 6.535 9.47724 6.54266 12.8334 6.54266H16.331L16.3153 4.22209L16.2917 1.90918L14.091 1.20459C12.8806 0.813998 11.8588 0.499994 11.8116 0.499994C11.7723 0.507653 11.6073 0.538287 11.4579 0.568922Z" fill="#747474"/>
<path d="M22.0294 1.21226L19.8286 1.93217L19.8443 4.93436C19.8601 6.58863 19.8836 7.95952 19.8994 7.97484C19.9151 7.99016 20.1273 7.81401 20.3709 7.57659C20.6146 7.33917 21.0155 7.02517 21.267 6.86434L21.715 6.58097L24.238 6.55799L26.761 6.53502L26.8553 6.21335C26.9496 5.90701 27.0675 5.60066 27.2798 5.16412C27.492 4.71992 28.2308 3.83917 28.726 3.44093C29.3469 2.94311 29.8106 2.67506 30.6752 2.32276C31.0839 2.15427 31.249 2.05471 31.1468 2.03939C31.0603 2.02408 30.8167 1.97047 30.5966 1.9092C30.3844 1.85559 29.9757 1.74837 29.6927 1.67944C29.4098 1.61817 29.0561 1.52626 28.9067 1.48797C28.7574 1.44968 28.1365 1.31182 27.5313 1.17397C26.9261 1.04377 26.0772 0.852304 25.6449 0.752742C24.2852 0.438737 24.4738 0.415761 22.0294 1.21226Z" fill="#747474"/>
<path d="M4.7377 7.69912C4.39186 7.7221 3.92813 7.80635 3.70805 7.87527C3.14214 8.04376 2.48192 8.49562 2.2304 8.8709C2.04962 9.14661 2.02604 9.25383 2.04176 9.68271L2.06534 10.1805L7.693 10.2035L13.3285 10.2188L13.6351 10.5481C13.808 10.7243 14.0752 10.9847 14.2245 11.1225L14.4918 11.3676L16.4017 9.52954C17.4549 8.5186 18.2802 7.68381 18.2488 7.68381C17.9894 7.63786 5.24073 7.65317 4.7377 7.69912Z" fill="#747474"/>
<path d="M22.0766 7.6838C21.6915 7.78336 20.2845 9.18489 19.7737 9.97373L19.6165 10.2188H24.969H30.3294L30.9739 10.7549C31.3276 11.0459 31.642 11.291 31.6656 11.291C31.7364 11.291 35.3047 7.79102 35.3362 7.69145C35.3676 7.60721 22.3988 7.59189 22.0766 7.6838Z" fill="#747474"/>
<path d="M2.96923 11.2604C2.96923 11.3217 3.29935 11.7506 3.4644 11.9191C3.6609 12.1105 5.21715 13.8337 7.29215 16.1543C8.78553 17.8239 10.7898 20.0525 12.1024 21.5C12.8727 22.3501 13.0299 22.6335 12.8648 22.825C12.7233 22.9935 7.02492 22.9781 6.33325 22.8096C5.71232 22.6565 5.24073 22.4191 4.71412 22.0208C4.49405 21.8447 4.28183 21.7068 4.25039 21.7068C4.21109 21.7068 3.32293 22.5492 2.26185 23.5832L0.336182 25.4595L8.19604 25.4442L16.0559 25.4212L16.5668 25.1762C18.1152 24.4256 18.7047 22.8403 17.9973 21.3622C17.6357 20.6116 17.4785 20.4201 14.8455 17.4563C14.7354 17.3261 14.3739 16.9278 14.0438 16.5755C13.7215 16.2156 13.2185 15.6641 12.9434 15.3501C12.1181 14.4158 10.5697 12.6849 9.90949 11.942L9.28856 11.2528L6.1289 11.2298C4.39187 11.2221 2.96923 11.2374 2.96923 11.2604Z" fill="#747474"/>
<path d="M10.9234 11.3599C10.9391 11.4212 12.9906 13.7494 13.305 14.0788C13.3521 14.1247 13.6115 14.4234 13.8866 14.7374C14.1617 15.0514 14.5311 15.465 14.7119 15.6564C14.8848 15.8479 15.2621 16.2615 15.545 16.5755C15.828 16.8895 16.1031 17.1958 16.1581 17.2494C16.2367 17.3337 16.2524 17.1499 16.2524 16.3304C16.2524 15.7713 16.276 14.4081 16.3074 13.2976C16.3389 12.0339 16.331 11.291 16.2839 11.291C16.2367 11.291 15.993 11.4901 15.7337 11.7429C14.6804 12.7538 14.2403 12.7615 13.2814 11.7965L12.7862 11.291H11.843C11.3007 11.291 10.9077 11.3217 10.9234 11.3599Z" fill="#747474"/>
<path d="M19.1842 11.3829C19.0112 11.6586 18.6182 12.9453 18.4532 13.7801C18.3117 14.5383 18.1388 16.2615 18.1388 16.9584C18.1388 17.7779 18.406 19.3249 18.6025 19.7002C18.6418 19.7691 18.7361 19.9683 18.8069 20.1367C19.64 22.1127 21.6286 24.2341 23.5307 25.1761C24.4896 25.651 25.8022 25.9573 27.1776 26.0416C29.1898 26.1564 31.2097 25.6357 32.373 24.7166C33.0411 24.1882 33.0568 24.1958 31.587 24.1805C30.243 24.1729 29.7792 24.1039 28.6946 23.7669C27.4999 23.3917 26.4231 22.733 25.5664 21.8446C24.5524 20.7877 24.0022 19.7998 23.6328 18.337C23.4442 17.5864 23.4049 17.303 23.4049 16.3993C23.4049 15.8173 23.4363 15.1969 23.4756 15.0208C23.5149 14.8446 23.6093 14.3851 23.6879 14.0098C23.79 13.4584 24.2145 12.0722 24.4817 11.4059C24.5131 11.3063 24.1673 11.291 21.8879 11.291C19.8601 11.291 19.2313 11.314 19.1842 11.3829Z" fill="#747474"/>
<path d="M25.6449 11.6127C25.3462 12.3096 25.3069 12.4092 25.2205 12.6696C25.1733 12.8151 25.079 13.1061 25.0161 13.3052C24.9532 13.5044 24.8982 13.7188 24.8982 13.7801C24.8982 13.849 24.8668 13.9562 24.8275 14.0328C24.686 14.2932 24.4816 16.2538 24.5366 16.8665C24.686 18.5667 25.2519 19.884 26.3444 21.0558L26.6981 21.4387L26.706 16.361V11.291H26.2501H25.7864L25.6449 11.6127Z" fill="#747474"/>
<path d="M9.49292 21.0788V21.86H10.161C10.5304 21.86 10.8291 21.8294 10.8291 21.7987C10.8291 21.7451 10.0903 20.895 9.68156 20.4814L9.49292 20.29V21.0788Z" fill="#747474"/>
<path d="M19.8915 27.4661C19.9229 29.5033 19.9465 32.1379 19.9465 33.3326V35.5L20.4024 35.2549C20.646 35.1247 21.0547 34.8796 21.2984 34.7188C21.5499 34.5503 21.7857 34.4201 21.825 34.4201C21.8643 34.4201 21.9115 34.3972 21.9272 34.3589C21.9429 34.3282 22.2887 34.0602 22.6975 33.7615C24.0651 32.7735 25.0633 31.8162 26.3837 30.2462L26.706 29.8632L26.6903 28.4847L26.6667 27.1061L26.0379 27.0219C23.7743 26.7079 22.0922 25.8961 20.5046 24.3414C20.1823 24.0274 19.8993 23.7746 19.8836 23.7746C19.86 23.7746 19.8679 25.4365 19.8915 27.4661Z" fill="#747474"/>
<path d="M15.5843 26.5317C15.3249 26.57 13.8473 26.593 12.3067 26.6007L9.49292 26.6083V28.232V29.8479L9.83089 30.2768C10.609 31.2648 12.0317 32.6663 13.0299 33.4245C13.2264 33.57 13.3993 33.7079 13.4228 33.7309C13.6979 34.0142 15.9537 35.4158 16.1345 35.4158C16.2367 35.4158 16.2524 34.9103 16.2367 30.9584C16.221 28.0635 16.1817 26.5011 16.1345 26.4935C16.0952 26.4858 15.8437 26.5011 15.5843 26.5317Z" fill="#747474"/>
</svg>
