<svg width="37" height="39" viewBox="0 0 37 39" fill="none" xmlns="http://www.w3.org/2000/svg">
<g opacity="0.5">
<path d="M16.8645 0.52364C15.4977 0.632324 13.5298 1.09177 12.2147 1.61544C11.9939 1.70436 11.7309 1.80811 11.6322 1.84763C11.3082 1.97113 9.90382 2.67759 9.6314 2.8505C9.59383 2.8752 9.3402 3.03329 9.06778 3.20126C8.35386 3.64588 7.4098 4.35234 6.74285 4.94517C5.92561 5.67138 4.78428 6.91633 4.18308 7.74135C4.09384 7.86486 4.0046 7.98342 3.98112 8.01307C3.19675 9.08016 2.21981 10.8537 1.75013 12.0641C1.46362 12.8101 1.35559 13.1163 1.16303 13.7685C0.71213 15.3148 0.486682 16.5054 0.378655 17.9677C0.294112 19.1385 0.341081 21.2184 0.472592 22.0187C0.496076 22.1669 0.547741 22.5127 0.590012 22.7844C0.632284 23.0561 0.698039 23.402 0.730917 23.5502C0.768492 23.6984 0.843641 24.0195 0.895306 24.2665C1.01273 24.7803 1.53877 26.4649 1.60453 26.5341C1.62801 26.5637 1.6468 26.6131 1.6468 26.6477C1.6468 26.7267 1.82997 27.1565 2.24799 28.0409C3.47386 30.6592 5.3432 32.9959 7.63525 34.7843C8.36326 35.3475 8.32099 35.3178 8.43841 35.392C9.16172 35.8712 9.86624 36.2911 10.3829 36.5529C11.0968 36.9185 11.5477 37.1359 11.5853 37.1359C11.5994 37.1359 11.6792 37.1655 11.7591 37.205C12.0784 37.3483 12.2053 37.3977 12.6139 37.541C13.7646 37.9411 14.8261 38.198 16.1835 38.4055C16.996 38.534 19.9362 38.529 20.6924 38.4055C22.1578 38.1585 23.1066 37.9312 24.1681 37.5558C26.446 36.7555 28.8179 35.303 30.5276 33.653C31.4153 32.7983 32.0587 32.0672 32.721 31.1582C34.5434 28.6633 35.7082 25.9215 36.2342 22.8585C36.455 21.5839 36.4738 21.3518 36.4738 19.5239C36.4738 17.696 36.455 17.4193 36.2342 16.1398C36.051 15.0628 35.6659 13.5857 35.3653 12.7952C34.5481 10.6561 33.6838 9.08016 32.4627 7.49434C31.6501 6.43712 30.9409 5.69609 29.6164 4.53513C29.5647 4.49066 29.4473 4.40174 29.3581 4.33258C29.2688 4.26835 29.1843 4.19919 29.1702 4.18437C29.1044 4.1152 28.1839 3.45815 27.8175 3.22596C27.0472 2.73687 25.3752 1.86245 25.2108 1.86245C25.1779 1.86245 25.1309 1.84269 25.1027 1.82293C25.0793 1.79823 24.9243 1.72906 24.7552 1.66978C24.5861 1.60556 24.4076 1.53639 24.3559 1.51169C24.2244 1.45241 23.2522 1.15105 22.853 1.04731C22.6745 1.00284 22.449 0.943562 22.3598 0.918861C22.0733 0.839817 21.5097 0.731129 20.8333 0.627384C20.3167 0.54834 19.8705 0.5187 18.7667 0.50388C17.9917 0.493999 17.1369 0.50388 16.8645 0.52364ZM18.4567 15.6458C18.5037 15.6705 18.5554 15.7544 18.5695 15.8335L18.5976 15.9718L19.2693 16.036C20.2744 16.1348 21.2466 16.3621 22.031 16.6832C22.1719 16.7425 22.3457 16.8067 22.4115 16.8314C22.4772 16.8512 22.5712 16.8956 22.6228 16.9253C22.6698 16.9549 22.8717 17.0537 23.0643 17.1525C23.2569 17.2464 23.5434 17.3995 23.6984 17.4984C23.8534 17.5922 24.0131 17.6861 24.0507 17.7058C24.0882 17.7305 24.2291 17.8244 24.3653 17.9183C24.5579 18.0517 24.6143 18.1159 24.6237 18.2394C24.6378 18.3876 24.6425 18.3876 24.9384 18.4024C25.192 18.4172 25.253 18.4024 25.347 18.3086C25.408 18.2493 25.4597 18.1801 25.4597 18.1603C25.4597 18.1406 25.5302 18.0072 25.6194 17.859C25.9294 17.3551 25.9059 17.3748 26.2018 17.3699L26.4695 17.365L26.2347 17.3156C26.1079 17.2909 25.981 17.2513 25.9529 17.2316C25.9294 17.2069 25.7885 17.1723 25.6476 17.1525C25.1967 17.0883 25.1591 17.0241 25.2859 16.5103L25.347 16.2633L25.7697 16.2287C25.9998 16.2089 26.5916 16.1595 27.0801 16.12C27.5733 16.0805 28.2684 16.0212 28.6301 15.9965C28.9917 15.9669 29.5225 15.9224 29.8043 15.8928C30.0908 15.8631 30.6403 15.8187 31.0254 15.794C31.4153 15.7643 31.9225 15.7248 32.1527 15.6952C32.3875 15.6705 32.7492 15.6458 32.9652 15.6458C33.3879 15.6458 33.402 15.6556 33.3081 15.9718C33.2846 16.0509 33.2189 16.3374 33.1625 16.6091C33.1061 16.8808 33.0451 17.1674 33.0216 17.2513C32.9981 17.3304 32.9699 17.4786 32.9511 17.5725C32.923 17.7355 32.7914 18.2097 32.7727 18.2147C32.768 18.2196 32.1574 18.2394 31.4106 18.2592C30.2692 18.2987 30.0391 18.3184 29.9405 18.3876C29.8324 18.4617 29.715 18.4864 29.3346 18.5111C29.2829 18.516 29.3346 18.5506 29.452 18.5852C29.9827 18.7433 30.5886 19.2423 30.8235 19.7066C31.0489 20.1611 31.1053 20.3983 31.11 20.9071C31.1147 21.4703 31.0442 21.7717 30.7812 22.2262C30.5135 22.7004 30.1518 23.0018 29.5225 23.2785C29.2406 23.402 28.3811 23.402 28.0664 23.2785C27.6813 23.1253 27.3102 22.8733 27.1036 22.6263C26.8641 22.3398 26.5869 21.8507 26.5869 21.7173C26.5869 21.663 26.5541 21.5395 26.5165 21.4407C26.4789 21.3468 26.446 21.1739 26.4413 21.0603C26.4413 20.9516 26.4226 20.8133 26.3991 20.7589C26.3709 20.6947 26.3568 20.8034 26.3568 21.0899C26.3521 21.327 26.3709 21.5345 26.3991 21.5494C26.4272 21.5642 26.446 21.6333 26.446 21.7025C26.446 21.8408 26.5963 22.2212 26.7372 22.4238C26.8218 22.5572 26.8218 22.5572 26.7325 22.6066C26.6809 22.6362 26.5728 22.6609 26.493 22.6609C26.4085 22.6609 26.291 22.7054 26.2253 22.7597C26.1079 22.8585 26.0327 22.8585 19.6779 22.8585H13.248L13.2198 22.7251C13.201 22.656 13.2104 22.3546 13.2433 22.0533C13.2761 21.7569 13.2855 21.5 13.2714 21.4851C13.2573 21.4703 13.248 21.5049 13.248 21.5642C13.248 21.6235 13.2198 21.6729 13.1822 21.6729C13.1446 21.6729 13.1024 21.742 13.0836 21.831C13.0366 22.0631 12.8769 22.5572 12.7971 22.7202C12.7313 22.8486 12.7125 22.8585 12.4213 22.8585C12.0503 22.8585 12.0174 22.8042 12.2053 22.5078C12.6374 21.826 12.7642 20.9862 12.5246 20.3736C12.4636 20.2106 12.4025 20.1068 12.3837 20.1315C12.3696 20.1611 12.379 20.3538 12.4072 20.5662C12.5246 21.3765 12.2898 22.0977 11.7262 22.6906C11.4538 22.9722 11.3176 23.071 11.0123 23.2043C10.6741 23.3526 10.5989 23.3674 10.1481 23.3723C9.58913 23.3723 9.31671 23.2982 8.88461 23.0265L8.62158 22.8585H6.61604C4.38505 22.8585 4.48368 22.8733 4.70443 22.5424C4.86412 22.2953 4.98154 22.2361 5.59683 22.0681C6.60665 21.7914 6.51271 21.7914 6.69589 22.0878C6.85088 22.3398 7.16557 22.6115 7.30647 22.6115C7.4145 22.6115 7.39571 22.5572 7.20784 22.3398C7.01527 22.1126 6.90255 21.9051 6.86027 21.6976C6.83679 21.5691 6.81331 21.5494 6.69589 21.5642C6.61604 21.5741 6.46104 21.6086 6.34362 21.6482C6.2262 21.6827 6.01485 21.747 5.87394 21.7865C5.73304 21.831 5.51229 21.8952 5.38077 21.9347C5.25396 21.9742 5.06609 22.0236 4.96745 22.0384C4.84534 22.0631 4.73731 22.1323 4.61519 22.2706L4.44141 22.4633H4.06566C3.859 22.4633 3.66643 22.4435 3.63355 22.4238C3.54432 22.3645 3.65704 22.2509 3.97173 22.0878C4.23005 21.9495 4.47429 21.8112 5.14593 21.4259C5.27744 21.3518 5.59213 21.1739 5.85046 21.0306C6.10878 20.8824 6.44695 20.6947 6.60195 20.6058C6.75694 20.5168 6.97769 20.3933 7.09512 20.3291C7.21254 20.2698 7.38632 20.1661 7.48026 20.1068C7.69161 19.9734 7.79025 19.9635 7.87009 20.0772C7.92176 20.1463 7.93115 20.1414 7.95933 20.0179C8.011 19.8055 8.28811 19.3954 8.56992 19.1138C8.94097 18.7433 9.41065 18.5358 10.0118 18.4815C10.3453 18.4469 10.3688 18.437 10.6412 18.19C11.1532 17.7256 11.0874 17.7355 11.5571 18.0467C12.0221 18.3481 12.1912 18.3876 12.1583 18.19C12.1207 17.9973 12.271 18.0319 12.4072 18.2493L12.5246 18.437L12.9145 18.4222C13.2855 18.4123 13.3137 18.4024 13.572 18.2097C13.8116 18.0319 13.8726 18.0121 14.145 18.0023C14.4363 17.9924 14.4456 17.9973 14.4409 18.1159C14.4363 18.185 14.4175 18.2888 14.3987 18.3481C14.3658 18.4518 14.3752 18.4568 14.5208 18.4123C14.61 18.3827 14.7697 18.3629 14.8778 18.3629C15.2159 18.3629 15.2253 18.3481 15.1924 17.943C15.169 17.6466 15.1784 17.5329 15.2676 17.2711C15.385 16.9006 15.4977 16.7623 15.7842 16.6239C16.0332 16.5054 16.5122 16.5202 16.7565 16.6486C16.9631 16.7623 17.1416 17.0241 17.1886 17.281L17.2262 17.4984L17.2637 17.1377C17.306 16.7178 17.3671 16.6585 17.7005 16.698C17.9354 16.7227 17.9683 16.7623 18.0152 17.0488L18.0528 17.2513L18.0951 17.0537C18.1233 16.9253 18.1233 16.7178 18.0904 16.4609C18.0011 15.7693 18.0058 15.6853 18.1092 15.6408C18.2407 15.5865 18.3581 15.5865 18.4567 15.6458Z" fill="white"/>
<path d="M17.1323 17.7898C17.0853 17.9479 17.0007 18.1011 16.9303 18.1604L16.8129 18.2542L16.9162 18.2888C16.9726 18.3086 17.2215 18.3036 17.4704 18.2839C17.8086 18.2493 17.865 18.2345 17.7006 18.2246C17.4141 18.2048 17.3201 18.0961 17.5268 18.022C17.6677 17.9726 17.6724 17.9628 17.6066 17.859C17.5644 17.7948 17.4751 17.7355 17.4047 17.7207C17.3342 17.7059 17.2591 17.6565 17.245 17.6071C17.2215 17.5379 17.1886 17.5873 17.1323 17.7898Z" fill="white"/>
<path d="M16.1834 17.6219C16.1695 17.6466 16.1788 17.6713 16.202 17.6713C16.2298 17.6713 16.253 17.6466 16.253 17.6219C16.253 17.5922 16.2438 17.5725 16.2345 17.5725C16.2206 17.5725 16.1973 17.5922 16.1834 17.6219Z" fill="white"/>
<path d="M26.7936 17.9134C26.4742 18.2295 26.4883 18.2839 26.8922 18.3234C27.019 18.3382 27.0331 18.358 27.0472 18.5161C27.0566 18.6198 27.0378 18.7137 27.0003 18.7483C26.958 18.7828 26.5916 18.8075 26.0233 18.8224C25.1685 18.8421 24.774 18.8767 24.0741 19.0002C23.9191 19.0299 23.581 19.0891 23.3226 19.1287C21.3547 19.4597 19.9362 19.761 19.1613 20.0179C19.0391 20.0574 18.9029 20.092 18.856 20.092C18.8043 20.092 18.7057 20.1266 18.6305 20.1661C18.5601 20.2056 18.4614 20.2402 18.4192 20.2402C18.3769 20.2402 18.2877 20.2699 18.2219 20.3094C18.1561 20.344 18.0246 20.3884 17.9307 20.4082C17.8321 20.4279 17.7569 20.4625 17.7569 20.4872C17.7569 20.507 17.6959 20.5416 17.616 20.5613C17.5362 20.5811 17.4751 20.6157 17.4751 20.6404C17.4751 20.6651 17.4469 20.6848 17.4187 20.6848C17.306 20.6848 16.9115 20.9071 16.9115 20.9664C16.9115 21.001 16.8739 21.0307 16.8316 21.0356C16.78 21.0405 16.7894 21.0554 16.8645 21.0751C16.9772 21.1048 16.9866 21.1344 17.0289 21.6235L17.0806 22.1422L17.1134 21.6235C17.1604 20.9269 17.1839 20.833 17.2872 20.833C17.3342 20.833 17.4046 20.7985 17.4469 20.7589C17.4845 20.7194 17.5549 20.6848 17.6019 20.6848C17.6536 20.6848 17.7334 20.6503 17.7851 20.6107C17.8321 20.5712 17.926 20.5366 17.9824 20.5366C18.0434 20.5366 18.1514 20.507 18.2172 20.4675C18.3487 20.3983 18.6399 20.3094 18.9546 20.2452C19.0579 20.2254 19.227 20.1809 19.3303 20.1513C19.5511 20.0871 20.0677 19.9784 20.622 19.8746C20.8427 19.8351 21.148 19.7808 21.303 19.7511C21.458 19.7215 21.7774 19.677 22.0169 19.6474C22.2518 19.6227 22.4725 19.5881 22.5101 19.5733C22.543 19.5634 22.7825 19.5288 23.0408 19.4992C23.642 19.435 24.4029 19.3312 25.0605 19.2225C25.347 19.1731 25.7885 19.1336 26.0468 19.1287C26.8641 19.1138 27.2492 19.0595 27.4324 18.936C27.8269 18.6643 28.1886 18.5358 28.7052 18.4765C28.9213 18.4518 28.9823 18.4271 29.034 18.3333C29.1044 18.19 29.4003 17.9677 29.5272 17.9677C29.5882 17.9628 29.5741 17.943 29.4661 17.8936C29.3111 17.8244 28.0711 17.7207 27.3854 17.7207C26.9862 17.7207 26.9862 17.7256 26.7936 17.9134Z" fill="white"/>
<path d="M9.63147 19.0249C8.7015 19.2966 8.12849 20.2205 8.26469 21.2233C8.39151 22.2015 9.16179 22.908 10.1058 22.908C10.7117 22.908 11.2472 22.6362 11.59 22.1521C11.9 21.7174 11.9564 21.5296 11.9564 20.9072C11.9564 20.3835 11.9517 20.3538 11.7967 20.0525C11.3552 19.2028 10.4722 18.7828 9.63147 19.0249ZM10.444 19.9883C10.6319 20.0673 10.909 20.3489 10.9982 20.5613C11.1157 20.8331 11.1063 21.0652 10.9701 21.3617C10.6836 21.9693 9.99782 22.1274 9.51405 21.7075C8.95513 21.2283 9.10073 20.2797 9.77237 19.9981C9.92267 19.9339 10.2984 19.929 10.444 19.9883Z" fill="white"/>
<path d="M9.88504 20.3587C9.6502 20.4674 9.53748 20.6601 9.53748 20.9516C9.54217 21.5148 10.1011 21.7766 10.505 21.4061C10.6788 21.248 10.6882 21.2282 10.6882 20.9417C10.6882 20.6058 10.613 20.4773 10.3406 20.3587C10.1481 20.2748 10.0729 20.2748 9.88504 20.3587Z" fill="white"/>
<path d="M28.2496 19.0496C27.7423 19.2324 27.3619 19.5584 27.1505 19.9981C26.7419 20.833 26.8687 21.6828 27.4981 22.3398C28.6723 23.5749 30.6732 22.6955 30.6732 20.9467C30.6732 20.3439 30.443 19.8203 30.0062 19.4251C29.5271 18.9953 28.8179 18.8421 28.2496 19.0496ZM29.2359 20.0574C29.3393 20.1167 29.4849 20.2501 29.5647 20.3538C29.6821 20.507 29.7103 20.5959 29.7244 20.8577C29.7573 21.4061 29.5036 21.7766 28.9964 21.9199C28.6113 22.0236 28.1134 21.7618 27.9302 21.3567C27.7705 21.001 27.8692 20.4773 28.1463 20.2056C28.4234 19.929 28.9165 19.8647 29.2359 20.0574Z" fill="white"/>
<path d="M28.5596 20.3785C28.3717 20.4773 28.1838 20.7441 28.1838 20.917C28.1838 21.2381 28.4938 21.574 28.7944 21.574C29.4238 21.574 29.6305 20.6897 29.0668 20.3834C28.8508 20.2698 28.7662 20.2649 28.5596 20.3785Z" fill="white"/>
<path d="M7.75269 20.9071C7.75269 21.3369 7.76206 21.6778 7.78082 21.663C7.81833 21.6235 7.82302 20.2007 7.78551 20.1562C7.76675 20.1414 7.75269 20.4773 7.75269 20.9071Z" fill="white"/>
<path d="M16.446 21.3221C16.381 21.4506 16.381 21.747 16.4507 21.994L16.5064 22.1916L16.5389 21.994C16.59 21.7124 16.59 21.2875 16.5389 21.2529C16.5111 21.2381 16.4693 21.2678 16.446 21.3221Z" fill="white"/>
<path d="M7.90295 21.8952C7.90295 21.9742 7.91216 22.0039 7.92597 21.9545C7.93518 21.91 7.93518 21.8409 7.92597 21.8063C7.91216 21.7766 7.90295 21.8112 7.90295 21.8952Z" fill="white"/>
<path d="M8.0391 22.1966C8.0391 22.2509 8.0527 22.2657 8.06631 22.2262C8.07992 22.1916 8.07538 22.1472 8.06177 22.1323C8.04817 22.1126 8.03456 22.1422 8.0391 22.1966Z" fill="white"/>
</g>
</svg>
