<svg width="44" height="36" viewBox="0 0 44 36" fill="none" xmlns="http://www.w3.org/2000/svg">
<g opacity="0.5">
<path d="M28.6254 35.5H28.2702C24.0085 35.5 19.7468 35.5 15.4851 35.5C14.9524 35.5 14.5973 35.3223 14.4197 34.967C9.98045 29.2817 5.36362 23.7741 0.924355 18.0888C0.746784 17.7335 0.569214 17.5558 0.569214 17.2005C0.569214 11.6929 0.569214 6.36294 0.569214 0.85533C0.569214 0.677665 0.569214 0.5 0.746784 0.5H0.924355C10.158 12.0482 19.3917 23.5964 28.4478 35.1447C28.4478 35.1447 28.4478 35.3223 28.6254 35.3223V35.5Z" fill="white"/>
<path d="M42.831 18.0888C41.5881 19.6878 40.1675 21.2868 38.9245 23.0635C38.5694 23.4188 38.2142 23.5964 37.8591 23.5964C33.5974 23.5964 29.3357 23.5964 25.2516 23.5964H25.074C24.8964 23.5964 24.7189 23.4188 24.8964 23.2411C24.8964 23.2411 24.8964 23.0635 25.074 23.0635C29.3357 17.7335 33.4198 12.5812 37.6815 7.25127C39.4572 5.11929 41.2329 2.80964 42.831 0.677665C42.831 0.5 43.0086 0.5 43.1862 0.5H43.3638C43.3638 0.677665 43.3638 0.677665 43.3638 0.85533C43.3638 6.18528 43.3638 11.6929 43.3638 17.0228C43.1862 17.5558 43.0086 17.9112 42.831 18.0888Z" fill="white"/>
</g>
</svg>
